{"glyphs":{"0":{"ha":758,"x_min":56,"x_max":702,"o":"m 702 505 q 623 106 702 233 q 379 -21 544 -21 q 134 109 212 -21 q 56 504 56 238 q 135 904 56 777 q 379 1030 214 1030 q 624 899 546 1030 q 702 505 702 768 m 528 197 q 556 324 548 248 q 564 505 564 401 q 556 686 564 609 q 528 813 548 762 q 472 891 507 865 q 379 918 436 918 q 287 891 323 918 q 229 812 250 865 q 201 682 209 760 q 194 504 194 603 q 200 327 194 398 q 229 199 207 256 q 284 119 248 147 q 379 91 321 91 q 472 118 435 91 q 528 197 508 144 z "},"1":{"ha":758,"x_min":153,"x_max":646,"o":"m 646 0 l 153 0 l 153 103 l 336 103 l 336 780 l 153 780 l 153 872 q 306 902 257 872 q 361 1013 355 931 l 467 1013 l 467 103 l 646 103 l 646 0 z "},"2":{"ha":758,"x_min":74,"x_max":697,"o":"m 697 0 l 74 0 l 74 142 q 201 264 141 205 q 317 385 260 322 q 475 588 433 512 q 517 746 517 665 q 504 820 517 788 q 467 873 490 852 q 412 903 444 893 q 344 913 381 913 q 271 904 308 913 q 200 882 234 895 q 145 854 172 870 q 102 826 119 838 l 95 826 l 95 970 q 212 1011 137 991 q 354 1031 287 1031 q 575 956 495 1031 q 655 753 655 881 q 641 644 655 694 q 603 551 627 593 q 543 463 578 507 q 468 378 507 420 q 326 234 404 309 q 201 116 248 159 l 697 116 l 697 0 z "},"3":{"ha":758,"x_min":66,"x_max":680,"o":"m 347 913 q 273 905 310 913 q 201 882 237 896 q 145 853 169 868 q 102 825 121 838 l 94 825 l 94 968 q 213 1011 138 992 q 357 1031 289 1031 q 477 1017 426 1031 q 570 974 528 1003 q 637 895 614 941 q 660 787 660 849 q 605 641 660 704 q 473 561 550 578 l 473 551 q 542 530 505 545 q 609 486 578 515 q 660 411 640 457 q 680 300 680 366 q 656 174 680 231 q 590 73 633 117 q 484 3 546 26 q 342 -21 421 -21 q 191 -3 266 -21 q 66 41 117 16 l 66 184 l 75 184 q 190 125 118 153 q 334 96 262 96 q 417 110 375 96 q 486 153 458 123 q 528 218 513 182 q 542 309 542 254 q 526 399 542 364 q 481 455 510 435 q 414 483 453 475 q 330 491 375 491 l 272 491 l 272 604 l 317 604 q 466 647 408 604 q 523 773 523 690 q 508 839 523 811 q 470 882 493 866 q 413 907 444 900 q 347 913 382 913 z "},"4":{"ha":758,"x_min":27,"x_max":724,"o":"m 724 347 l 604 347 l 604 0 l 473 0 l 473 347 l 27 347 l 27 490 l 479 1010 l 604 1010 l 604 456 l 724 456 l 724 347 m 473 456 l 473 850 l 133 456 l 473 456 z "},"5":{"ha":758,"x_min":84,"x_max":686,"o":"m 686 321 q 662 186 686 248 q 597 78 639 123 q 491 5 554 32 q 349 -21 427 -21 q 206 -5 276 -21 q 84 37 136 11 l 84 180 l 94 180 q 138 154 109 168 q 203 126 168 139 q 276 104 243 112 q 351 96 309 96 q 430 111 391 96 q 496 158 469 125 q 535 228 522 188 q 548 322 548 268 q 533 410 548 376 q 491 467 519 445 q 419 504 462 493 q 325 514 377 514 q 214 506 270 514 q 125 490 159 497 l 125 1010 l 680 1010 l 680 891 l 256 891 l 256 623 q 304 627 281 625 q 348 628 328 628 q 479 615 425 628 q 582 565 532 602 q 659 470 632 527 q 686 321 686 413 z "},"6":{"ha":758,"x_min":58,"x_max":713,"o":"m 713 328 q 687 184 713 250 q 618 74 661 118 q 516 3 572 27 q 392 -21 460 -21 q 268 2 323 -21 q 169 71 212 25 q 87 217 117 125 q 58 444 58 309 q 85 681 58 575 q 168 866 112 787 q 310 986 223 943 q 511 1029 397 1029 q 574 1025 545 1029 q 625 1015 603 1022 l 625 885 l 619 885 q 566 904 601 895 q 492 912 532 912 q 289 827 366 912 q 197 574 211 742 q 296 627 245 608 q 407 645 347 645 q 510 633 466 645 q 603 585 555 621 q 686 479 659 543 q 713 328 713 414 m 575 322 q 559 427 575 385 q 506 498 543 469 q 446 527 479 520 q 377 534 412 534 q 285 519 330 534 q 197 478 240 505 q 195 449 195 463 q 194 414 194 435 q 215 245 194 309 q 266 147 235 180 q 326 102 295 115 q 393 90 357 90 q 525 148 474 90 q 575 322 575 206 z "},"7":{"ha":758,"x_min":67,"x_max":708,"o":"m 708 859 l 271 0 l 127 0 l 589 891 l 67 891 l 67 1010 l 708 1010 l 708 859 z "},"8":{"ha":758,"x_min":50,"x_max":708,"o":"m 550 774 q 505 888 550 842 q 378 933 459 933 q 257 892 304 933 q 210 783 210 852 q 234 698 210 732 q 307 635 258 663 q 371 604 328 624 q 449 572 414 583 q 529 665 508 617 q 550 774 550 713 m 569 269 q 545 368 569 331 q 450 442 520 404 q 389 470 427 455 q 302 505 351 485 q 216 413 246 468 q 186 289 186 359 q 242 138 186 197 q 380 78 297 78 q 517 129 466 78 q 569 269 569 180 m 379 -23 q 242 -1 304 -23 q 137 64 180 22 q 72 160 94 104 q 50 279 50 216 q 94 430 50 361 q 221 539 138 498 l 221 543 q 111 638 146 587 q 75 767 75 690 q 161 957 75 881 q 379 1033 247 1033 q 600 961 517 1033 q 683 776 683 888 q 643 642 683 708 q 529 538 604 575 l 529 534 q 663 433 617 492 q 708 281 708 374 q 614 64 708 152 q 379 -23 520 -23 z "},"9":{"ha":758,"x_min":45,"x_max":701,"o":"m 564 595 q 545 763 564 698 q 493 863 526 827 q 433 907 463 895 q 366 920 402 920 q 233 860 282 920 q 183 687 183 800 q 199 582 183 623 q 252 511 216 541 q 311 483 278 490 q 380 475 343 475 q 474 491 424 475 q 562 531 524 506 q 563 558 562 541 q 564 595 564 574 m 45 682 q 71 824 45 760 q 140 935 96 888 q 243 1005 182 980 q 366 1030 304 1030 q 493 1007 436 1030 q 591 939 549 983 q 672 793 643 884 q 701 566 701 703 q 672 328 701 440 q 589 142 644 216 q 449 22 531 63 q 248 -20 368 -20 q 190 -17 220 -20 q 133 -5 159 -14 l 133 124 l 140 124 q 193 106 157 115 q 266 97 229 97 q 475 184 399 97 q 561 435 551 272 q 457 381 507 398 q 351 364 408 364 q 248 376 294 364 q 155 424 202 389 q 73 529 101 465 q 45 682 45 592 z "}," ":{"ha":416,"x_min":0,"x_max":0,"o":""},"!":{"ha":461,"x_min":155,"x_max":307,"o":"m 307 1010 l 288 278 l 175 278 l 155 1010 l 307 1010 m 300 0 l 161 0 l 161 143 l 300 143 l 300 0 z "},"\"":{"ha":557,"x_min":77,"x_max":480,"o":"m 480 1055 l 451 663 l 361 663 l 332 1055 l 480 1055 m 225 1055 l 196 663 l 106 663 l 77 1055 l 225 1055 z "},"#":{"ha":1010,"x_min":96,"x_max":914,"o":"m 914 632 l 715 632 l 653 377 l 835 377 l 835 286 l 629 286 l 558 0 l 471 0 l 542 286 l 359 286 l 288 0 l 200 0 l 271 286 l 96 286 l 96 377 l 295 377 l 357 632 l 176 632 l 176 724 l 381 724 l 452 1010 l 540 1010 l 469 724 l 652 724 l 723 1010 l 810 1010 l 739 724 l 914 724 l 914 632 m 630 633 l 444 633 l 380 376 l 566 376 l 630 633 z "},"$":{"ha":758,"x_min":72,"x_max":694,"o":"m 694 258 q 618 86 694 158 q 426 1 542 15 l 426 -245 l 349 -245 l 349 -3 q 201 14 275 -2 q 72 58 127 31 l 72 195 l 82 195 q 203 130 136 155 q 349 98 270 104 l 349 391 q 307 400 332 395 q 266 412 283 406 q 120 496 164 439 q 77 634 77 552 q 152 802 77 730 q 349 884 227 873 l 349 1069 l 426 1069 l 426 886 q 554 868 488 884 q 662 835 620 853 l 662 701 l 652 701 q 548 758 604 733 q 426 787 491 782 l 426 496 q 468 486 448 491 q 501 477 487 481 q 644 402 593 456 q 694 258 694 349 m 349 506 l 349 787 q 246 747 288 781 q 205 652 205 713 q 235 558 205 591 q 349 506 265 526 m 566 240 q 534 334 566 304 q 426 380 501 365 l 426 99 q 531 141 495 107 q 566 240 566 174 z "},"%":{"ha":1356,"x_min":69,"x_max":1286,"o":"m 547 730 q 486 504 547 577 q 309 430 425 430 q 130 505 191 430 q 69 729 69 579 q 131 955 69 881 q 309 1029 193 1029 q 487 954 427 1029 q 547 730 547 880 m 999 1010 l 470 0 l 358 0 l 887 1010 l 999 1010 m 1286 280 q 1225 54 1286 127 q 1048 -20 1164 -20 q 869 55 930 -20 q 808 279 808 130 q 870 505 808 431 q 1048 579 932 579 q 1226 505 1166 579 q 1286 280 1286 430 m 427 730 q 402 886 427 833 q 309 939 378 939 q 214 885 239 939 q 190 729 190 831 q 213 574 190 627 q 309 520 236 520 q 402 574 378 520 q 427 730 427 627 m 1166 280 q 1142 436 1166 383 q 1048 489 1118 489 q 954 435 978 489 q 929 279 929 382 q 952 124 929 178 q 1048 71 975 71 q 1142 124 1118 71 q 1166 280 1166 178 z "},"&":{"ha":936,"x_min":45,"x_max":980,"o":"m 980 0 l 806 0 l 668 144 q 526 18 599 56 q 361 -21 453 -21 q 135 61 224 -21 q 45 277 45 144 q 62 381 45 336 q 105 463 78 427 q 166 525 132 498 q 233 572 201 552 q 130 669 164 618 q 96 797 96 720 q 116 886 96 845 q 166 958 135 927 q 251 1010 199 990 q 364 1031 302 1031 q 548 971 477 1031 q 619 821 619 912 q 611 752 619 788 q 580 684 602 717 q 521 621 557 650 q 425 570 485 592 l 663 325 q 675 446 673 380 q 677 616 677 511 l 809 616 l 809 551 q 792 405 809 486 q 738 250 776 323 l 980 0 m 609 204 l 297 524 q 263 498 280 513 q 226 453 246 483 q 197 391 210 429 q 184 310 184 353 q 242 152 184 214 q 397 90 299 90 q 514 117 462 90 q 609 204 566 144 m 361 618 q 424 653 399 631 q 462 701 448 675 q 480 751 474 724 q 486 808 486 777 q 448 909 486 873 q 359 945 410 945 q 264 905 298 945 q 229 803 229 864 q 234 756 229 776 q 256 711 239 737 q 295 667 270 690 q 361 618 321 643 z "},"'":{"ha":293,"x_min":71,"x_max":222,"o":"m 222 1055 l 193 663 l 100 663 l 71 1055 l 222 1055 z "},"(":{"ha":532,"x_min":73,"x_max":481,"o":"m 481 -279 l 326 -279 q 141 18 208 -139 q 73 388 73 174 q 140 756 73 597 q 326 1055 207 915 l 481 1055 l 481 1048 q 377 934 427 999 q 284 783 327 869 q 218 600 243 700 q 193 388 193 499 q 217 176 193 272 q 284 -7 242 79 q 377 -158 325 -91 q 481 -273 429 -226 l 481 -279 z "},")":{"ha":532,"x_min":50,"x_max":458,"o":"m 458 388 q 391 20 458 178 q 205 -279 324 -139 l 50 -279 l 50 -273 q 155 -158 102 -226 q 248 -7 208 -90 q 314 177 290 80 q 339 388 339 275 q 314 600 339 500 q 248 783 289 699 q 154 935 206 867 q 50 1048 102 1002 l 50 1055 l 205 1055 q 391 757 323 915 q 458 388 458 599 z "},"*":{"ha":758,"x_min":76,"x_max":683,"o":"m 683 602 l 639 527 l 417 674 l 422 427 l 337 427 l 341 674 l 121 526 l 76 601 l 316 741 l 76 882 l 121 956 l 342 808 l 337 1055 l 422 1055 l 416 808 l 639 956 l 683 881 l 443 742 l 683 602 z "},"+":{"ha":1010,"x_min":106,"x_max":904,"o":"m 904 388 l 562 388 l 562 45 l 449 45 l 449 388 l 106 388 l 106 496 l 449 496 l 449 839 l 562 839 l 562 496 l 904 496 l 904 388 z "},",":{"ha":420,"x_min":50,"x_max":339,"o":"m 339 193 l 149 -251 l 50 -251 l 170 193 l 339 193 z "},"-":{"ha":505,"x_min":61,"x_max":444,"o":"m 444 380 l 61 380 l 61 503 l 444 503 l 444 380 z "},".":{"ha":420,"x_min":129,"x_max":291,"o":"m 291 0 l 129 0 l 129 193 l 291 193 l 291 0 z "},"/":{"ha":531,"x_min":-16,"x_max":494,"o":"m 494 1055 l 98 -220 l -16 -220 l 377 1055 l 494 1055 z "},":":{"ha":491,"x_min":165,"x_max":327,"o":"m 327 564 l 165 564 l 165 758 l 327 758 l 327 564 m 327 0 l 165 0 l 165 193 l 327 193 l 327 0 z "},";":{"ha":491,"x_min":83,"x_max":372,"o":"m 327 564 l 165 564 l 165 758 l 327 758 l 327 564 m 372 193 l 182 -251 l 83 -251 l 202 193 l 372 193 z "},"<":{"ha":1010,"x_min":136,"x_max":865,"o":"m 865 54 l 136 401 l 136 483 l 865 831 l 865 710 l 300 442 l 865 174 l 865 54 z "},"=":{"ha":1010,"x_min":130,"x_max":880,"o":"m 880 530 l 130 530 l 130 639 l 880 639 l 880 530 m 880 245 l 130 245 l 130 354 l 880 354 l 880 245 z "},">":{"ha":1010,"x_min":146,"x_max":874,"o":"m 874 401 l 146 54 l 146 174 l 711 442 l 146 710 l 146 831 l 874 483 l 874 401 z "},"?":{"ha":658,"x_min":74,"x_max":618,"o":"m 618 772 q 596 654 618 706 q 538 563 574 602 q 455 490 501 524 q 357 426 408 457 l 357 271 l 235 271 l 235 478 q 324 533 273 501 q 403 593 374 566 q 460 669 439 628 q 480 762 480 710 q 432 877 480 839 q 307 914 384 914 q 179 891 239 914 q 81 844 119 869 l 74 844 l 74 983 q 189 1016 119 1001 q 319 1030 258 1030 q 538 959 458 1030 q 618 772 618 888 m 368 0 l 229 0 l 229 143 l 368 143 l 368 0 z "},"@":{"ha":1263,"x_min":90,"x_max":1179,"o":"m 1179 450 q 1154 268 1179 355 q 1080 106 1128 180 l 794 106 l 777 185 q 693 124 732 146 q 589 101 655 101 q 418 185 485 101 q 352 428 352 269 q 434 676 352 587 q 621 765 515 765 q 705 753 669 765 q 776 720 740 741 l 776 753 l 884 753 l 884 182 l 1038 182 q 1075 307 1063 230 q 1086 446 1086 383 q 973 803 1086 667 q 648 938 860 938 q 317 792 448 938 q 186 437 186 646 q 313 75 186 214 q 645 -64 440 -64 q 761 -56 700 -64 q 876 -33 821 -49 l 876 -129 q 760 -148 819 -142 q 644 -153 701 -153 q 247 12 404 -153 q 90 439 90 176 q 252 859 90 688 q 648 1029 414 1029 q 1038 868 897 1029 q 1179 450 1179 707 m 774 277 l 774 628 q 705 656 736 648 q 638 665 673 665 q 515 607 562 665 q 468 430 468 550 q 503 264 468 321 q 616 206 538 206 q 697 226 657 206 q 774 277 738 245 z "},"A":{"ha":829,"x_min":7,"x_max":822,"o":"m 574 405 l 414 869 l 254 405 l 574 405 m 471 1017 l 822 0 l 714 0 l 610 303 l 219 303 l 115 0 l 7 0 l 358 1017 l 471 1017 z "},"B":{"ha":852,"x_min":109,"x_max":814,"o":"m 211 481 l 211 102 l 482 102 q 655 149 597 102 q 713 292 713 197 q 655 434 713 387 q 482 481 597 481 l 211 481 m 448 583 q 621 625 564 583 q 679 749 679 667 q 621 874 679 833 q 448 916 564 916 l 211 916 l 211 583 l 448 583 m 109 1017 l 448 1017 q 698 950 614 1017 q 781 749 781 884 q 758 627 781 679 q 688 541 734 574 q 783 444 751 507 q 814 292 814 382 q 732 73 814 146 q 482 0 648 0 l 109 0 l 109 1017 z "},"C":{"ha":850,"x_min":52,"x_max":820,"o":"m 684 56 q 458 0 594 0 q 153 127 255 0 q 52 509 52 254 q 153 890 52 763 q 458 1017 255 1017 q 673 968 586 1017 q 808 818 761 918 l 721 762 q 619 885 685 844 q 458 926 554 926 q 230 821 306 926 q 153 509 153 718 q 230 196 153 300 q 458 92 306 92 q 626 137 559 92 q 728 272 694 182 l 820 226 q 684 56 775 113 z "},"D":{"ha":899,"x_min":109,"x_max":848,"o":"m 672 814 q 448 916 597 916 l 211 916 l 211 102 l 414 102 q 664 203 581 102 q 747 509 747 305 q 672 814 747 712 m 848 509 q 740 127 848 254 q 414 0 631 0 l 109 0 l 109 1017 l 448 1017 q 749 890 648 1017 q 848 509 848 763 z "},"E":{"ha":867,"x_min":109,"x_max":814,"o":"m 211 490 l 211 102 l 814 102 l 814 0 l 109 0 l 109 1017 l 801 1017 l 801 916 l 211 916 l 211 592 l 781 592 l 781 490 l 211 490 z "},"F":{"ha":825,"x_min":109,"x_max":800,"o":"m 211 592 l 726 592 l 726 490 l 211 490 l 211 0 l 109 0 l 109 1017 l 800 1017 l 800 916 l 211 916 l 211 592 z "},"G":{"ha":887,"x_min":52,"x_max":814,"o":"m 712 288 l 712 412 l 457 412 l 457 514 l 814 514 l 814 0 l 712 0 l 712 91 q 448 0 615 0 q 151 127 250 0 q 52 509 52 254 q 151 890 52 763 q 448 1017 250 1017 q 788 821 695 1017 l 693 775 q 448 916 621 916 q 227 814 301 916 q 153 509 153 712 q 227 203 153 305 q 448 102 301 102 q 712 288 648 102 z "},"H":{"ha":935,"x_min":109,"x_max":825,"o":"m 211 470 l 211 0 l 109 0 l 109 1017 l 211 1017 l 211 572 l 724 572 l 724 1017 l 825 1017 l 825 0 l 724 0 l 724 470 l 211 470 z "},"I":{"ha":445,"x_min":70,"x_max":375,"o":"m 172 916 l 70 916 l 70 1017 l 375 1017 l 375 916 l 273 916 l 273 102 l 375 102 l 375 0 l 70 0 l 70 102 l 172 102 l 172 916 z "},"J":{"ha":638,"x_min":39,"x_max":587,"o":"m 387 916 l 281 916 l 281 1017 l 587 1017 l 587 916 l 488 916 l 488 271 q 264 0 488 0 q 39 258 39 0 l 140 258 q 264 102 140 102 q 387 271 387 102 l 387 916 z "},"K":{"ha":835,"x_min":109,"x_max":828,"o":"m 703 0 l 338 546 l 211 425 l 211 0 l 109 0 l 109 1017 l 211 1017 l 211 565 l 681 1017 l 828 1017 l 412 618 l 825 0 l 703 0 z "},"L":{"ha":699,"x_min":109,"x_max":692,"o":"m 211 102 l 692 102 l 692 0 l 109 0 l 109 1017 l 211 1017 l 211 102 z "},"M":{"ha":1096,"x_min":109,"x_max":987,"o":"m 843 1017 l 987 1017 l 987 0 l 885 0 l 885 826 l 603 0 l 493 0 l 211 826 l 211 0 l 109 0 l 109 1017 l 253 1017 l 548 153 l 843 1017 z "},"N":{"ha":945,"x_min":109,"x_max":836,"o":"m 211 859 l 211 0 l 109 0 l 109 1017 l 237 1017 l 734 159 l 734 1017 l 836 1017 l 836 0 l 709 0 l 211 859 z "},"O":{"ha":897,"x_min":52,"x_max":845,"o":"m 151 890 q 448 1017 250 1017 q 746 890 647 1017 q 845 509 845 763 q 746 127 845 254 q 448 0 647 0 q 151 127 250 0 q 52 509 52 254 q 151 890 52 763 m 669 814 q 448 916 596 916 q 227 814 301 916 q 153 509 153 712 q 227 203 153 305 q 448 102 301 102 q 669 203 596 102 q 743 509 743 305 q 669 814 743 712 z "},"P":{"ha":840,"x_min":109,"x_max":808,"o":"m 808 739 q 724 531 808 600 q 472 461 640 461 l 211 461 l 211 0 l 109 0 l 109 1017 l 472 1017 q 724 948 640 1017 q 808 739 808 878 m 211 563 l 472 563 q 648 607 589 563 q 706 739 706 651 q 648 871 706 827 q 472 916 589 916 l 211 916 l 211 563 z "},"Q":{"ha":905,"x_min":52,"x_max":901,"o":"m 690 236 q 743 509 743 336 q 669 814 743 712 q 448 916 596 916 q 227 814 301 916 q 153 509 153 712 q 227 203 153 305 q 448 102 301 102 q 625 157 557 102 l 457 279 l 517 362 l 690 236 m 714 92 q 448 0 617 0 q 151 127 250 0 q 52 509 52 254 q 151 890 52 763 q 448 1017 250 1017 q 746 890 647 1017 q 845 509 845 763 q 776 173 845 296 l 901 82 l 841 0 l 714 92 z "},"R":{"ha":849,"x_min":109,"x_max":842,"o":"m 211 563 l 472 563 q 648 607 589 563 q 706 739 706 651 q 648 871 706 827 q 472 916 589 916 l 211 916 l 211 563 m 730 0 l 507 462 q 472 461 490 461 l 211 461 l 211 0 l 109 0 l 109 1017 l 472 1017 q 724 948 640 1017 q 808 739 808 878 q 759 568 808 633 q 612 477 710 502 l 842 0 l 730 0 z "},"S":{"ha":817,"x_min":59,"x_max":775,"o":"m 417 1017 q 755 746 755 1017 l 653 746 q 417 916 653 916 q 181 778 181 916 q 346 605 181 640 l 511 569 q 775 271 775 513 q 417 0 775 0 q 59 339 59 0 l 161 339 q 417 102 161 102 q 673 271 673 102 q 488 480 673 440 l 323 516 q 79 778 79 566 q 417 1017 79 1017 z "},"T":{"ha":730,"x_min":7,"x_max":723,"o":"m 315 916 l 7 916 l 7 1017 l 723 1017 l 723 916 l 416 916 l 416 0 l 315 0 l 315 916 z "},"U":{"ha":940,"x_min":97,"x_max":843,"o":"m 470 0 q 97 339 97 0 l 97 1017 l 199 1017 l 199 339 q 470 102 199 102 q 741 339 741 102 l 741 1017 l 843 1017 l 843 339 q 470 0 843 0 z "},"V":{"ha":829,"x_min":7,"x_max":822,"o":"m 714 1017 l 822 1017 l 471 0 l 358 0 l 7 1017 l 115 1017 l 414 148 l 714 1017 z "},"W":{"ha":1356,"x_min":7,"x_max":1349,"o":"m 732 1017 l 987 147 l 1242 1017 l 1349 1017 l 1050 0 l 924 0 l 678 838 l 431 0 l 306 0 l 7 1017 l 113 1017 l 369 147 l 624 1017 l 732 1017 z "},"X":{"ha":853,"x_min":12,"x_max":841,"o":"m 427 420 l 136 0 l 12 0 l 365 509 l 14 1017 l 138 1017 l 427 600 l 715 1017 l 840 1017 l 489 509 l 841 0 l 717 0 l 427 420 z "},"Y":{"ha":822,"x_min":7,"x_max":815,"o":"m 360 428 l 7 1017 l 125 1017 l 411 541 l 696 1017 l 815 1017 l 462 428 l 462 6 l 360 6 l 360 428 z "},"Z":{"ha":809,"x_min":52,"x_max":758,"o":"m 631 916 l 52 916 l 52 1017 l 758 1017 l 758 916 l 179 102 l 758 102 l 758 0 l 52 0 l 52 102 l 631 916 z "},"[":{"ha":451,"x_min":119,"x_max":378,"o":"m 119 1017 l 378 1017 l 378 916 l 221 916 l 221 -193 l 378 -193 l 378 -294 l 119 -294 l 119 1017 z "},"\\":{"ha":510,"x_min":35,"x_max":475,"o":"m 146 1017 l 475 -22 l 364 -22 l 35 1017 l 146 1017 z "},"]":{"ha":451,"x_min":73,"x_max":332,"o":"m 230 916 l 73 916 l 73 1017 l 332 1017 l 332 -294 l 73 -294 l 73 -193 l 230 -193 l 230 916 z "},"^":{"ha":709,"x_min":90,"x_max":619,"o":"m 302 1017 l 404 1017 l 619 490 l 524 490 l 354 906 l 186 490 l 90 490 l 302 1017 z "},"_":{"ha":812,"x_min":-11,"x_max":823,"o":"m 823 -163 l 823 -255 l -11 -255 l -11 -163 l 823 -163 z "},"a":{"ha":756,"x_min":47,"x_max":657,"o":"m 555 420 q 403 383 496 396 q 212 324 276 366 q 149 218 149 283 q 186 131 149 160 q 298 102 223 102 q 435 138 370 102 q 555 248 499 175 l 555 420 m 47 576 q 123 724 47 675 q 352 773 199 773 q 581 721 505 773 q 657 563 657 668 l 657 0 l 555 0 l 555 126 q 435 32 499 63 q 298 0 370 0 q 110 54 172 0 q 47 218 47 109 q 132 387 47 323 q 385 473 216 452 q 555 536 555 496 l 555 563 q 505 644 555 617 q 352 671 454 671 q 199 648 250 671 q 149 576 149 624 l 47 576 z "},"b":{"ha":756,"x_min":99,"x_max":709,"o":"m 201 0 l 99 0 l 99 1017 l 201 1017 l 201 660 q 404 773 266 773 q 709 387 709 773 q 404 0 709 0 q 201 113 266 0 l 201 0 m 253 596 q 227 558 253 596 q 201 387 201 521 q 253 177 201 253 q 404 102 304 102 q 608 387 608 102 q 404 671 608 671 q 253 596 304 671 z "},"c":{"ha":699,"x_min":47,"x_max":669,"o":"m 669 209 q 611 97 648 142 q 369 0 530 0 q 127 97 208 0 q 47 387 47 193 q 127 677 47 580 q 369 773 208 773 q 611 677 530 773 q 640 633 627 657 l 551 582 q 537 603 544 593 q 369 671 484 671 q 201 603 254 671 q 149 387 149 534 q 201 171 149 239 q 369 102 254 102 q 537 171 484 102 q 570 239 558 198 l 669 209 z "},"d":{"ha":756,"x_min":47,"x_max":657,"o":"m 555 113 q 352 0 490 0 q 47 387 47 0 q 352 773 47 773 q 555 660 490 773 l 555 1017 l 657 1017 l 657 0 l 555 0 l 555 113 m 504 596 q 478 634 504 596 q 352 671 452 671 q 149 387 149 671 q 352 102 149 102 q 504 177 452 102 q 555 387 555 253 q 504 596 555 521 z "},"e":{"ha":734,"x_min":47,"x_max":691,"o":"m 149 370 q 201 171 152 235 q 369 102 254 102 q 537 171 484 102 q 571 239 558 199 l 677 239 q 611 97 657 153 q 369 0 530 0 q 127 97 208 0 q 47 387 47 193 q 127 676 47 580 q 369 773 208 773 q 611 676 530 773 q 691 387 691 580 l 691 370 l 149 370 m 584 471 q 537 603 573 556 q 369 671 484 671 q 201 603 254 671 q 154 471 165 556 l 584 471 z "},"f":{"ha":340,"x_min":26,"x_max":353,"o":"m 121 773 l 121 848 q 353 1017 121 1017 l 353 926 q 223 848 223 926 l 223 773 l 333 773 l 333 671 l 223 671 l 223 0 l 121 0 l 121 671 l 26 671 l 26 773 l 121 773 z "},"g":{"ha":756,"x_min":47,"x_max":657,"o":"m 352 671 q 149 387 149 671 q 352 102 149 102 q 504 177 452 102 q 555 387 555 253 q 504 596 555 521 q 352 671 452 671 m 555 88 l 555 113 q 352 0 490 0 q 47 387 47 0 q 352 773 47 773 q 555 660 490 773 l 555 773 l 657 773 l 657 88 q 366 -244 657 -244 q 60 -58 115 -244 l 145 -44 q 366 -142 193 -142 q 555 88 555 -142 z "},"h":{"ha":803,"x_min":100,"x_max":711,"o":"m 609 0 l 609 481 q 433 671 609 671 q 271 589 340 671 q 202 475 202 507 l 202 0 l 100 0 l 100 1017 l 202 1017 l 202 640 q 433 773 308 773 q 711 481 711 773 l 711 0 l 609 0 z "},"i":{"ha":288,"x_min":93,"x_max":195,"o":"m 93 916 l 93 1017 l 195 1017 l 195 916 l 93 916 m 195 773 l 195 0 l 93 0 l 93 773 l 195 773 z "},"j":{"ha":321,"x_min":7,"x_max":229,"o":"m 127 916 l 127 1017 l 229 1017 l 229 916 l 127 916 m 7 -244 l 7 -142 q 127 -34 127 -142 l 127 773 l 229 773 l 229 -34 q 7 -244 229 -244 z "},"k":{"ha":715,"x_min":99,"x_max":708,"o":"m 201 429 l 541 773 l 684 773 l 366 452 l 708 0 l 581 0 l 294 378 l 201 283 l 201 0 l 99 0 l 99 1017 l 201 1017 l 201 429 z "},"l":{"ha":305,"x_min":102,"x_max":203,"o":"m 203 1017 l 203 0 l 102 0 l 102 1017 l 203 1017 z "},"m":{"ha":1175,"x_min":99,"x_max":1082,"o":"m 642 475 l 642 0 l 540 0 l 540 481 q 391 671 540 671 q 249 589 298 671 q 201 475 201 507 l 201 0 l 99 0 l 99 773 l 201 773 l 201 640 q 411 773 293 773 q 624 616 578 773 l 642 640 q 852 773 734 773 q 1082 475 1082 773 l 1082 0 l 981 0 l 981 481 q 831 671 981 671 q 690 589 739 671 q 642 475 642 507 z "},"n":{"ha":803,"x_min":100,"x_max":711,"o":"m 609 0 l 609 481 q 433 671 609 671 q 271 589 340 671 q 202 475 202 507 l 202 0 l 100 0 l 100 773 l 202 773 l 202 640 q 433 773 308 773 q 711 481 711 773 l 711 0 l 609 0 z "},"o":{"ha":735,"x_min":45,"x_max":690,"o":"m 536 171 q 588 387 588 239 q 536 603 588 534 q 368 671 483 671 q 200 603 252 671 q 147 387 147 534 q 200 171 147 239 q 368 102 252 102 q 536 171 483 102 m 126 97 q 45 387 45 193 q 126 677 45 580 q 368 773 207 773 q 610 677 529 773 q 690 387 690 580 q 610 97 690 193 q 368 0 529 0 q 126 97 207 0 z "},"p":{"ha":756,"x_min":99,"x_max":709,"o":"m 201 660 q 404 773 266 773 q 709 387 709 773 q 404 0 709 0 q 201 113 266 0 l 201 -244 l 99 -244 l 99 773 l 201 773 l 201 660 m 253 177 q 279 139 253 177 q 404 102 304 102 q 608 387 608 102 q 404 671 608 671 q 253 596 304 671 q 201 387 201 520 q 253 177 201 252 z "},"q":{"ha":756,"x_min":47,"x_max":657,"o":"m 555 773 l 657 773 l 657 -244 l 555 -244 l 555 113 q 352 0 490 0 q 47 387 47 0 q 352 773 47 773 q 555 660 490 773 l 555 773 m 504 177 q 529 215 504 177 q 555 387 555 252 q 504 596 555 520 q 352 671 452 671 q 149 387 149 671 q 352 102 149 102 q 504 177 452 102 z "},"r":{"ha":458,"x_min":99,"x_max":445,"o":"m 445 671 q 273 589 345 671 q 201 475 201 507 l 201 0 l 99 0 l 99 773 l 201 773 l 201 640 q 445 773 313 773 l 445 671 z "},"s":{"ha":696,"x_min":52,"x_max":663,"o":"m 357 0 q 52 245 52 0 l 154 245 q 357 102 154 102 q 561 237 561 102 q 431 344 561 310 l 322 370 q 73 576 73 431 q 357 773 73 773 q 642 555 642 773 l 541 555 q 357 671 541 671 q 174 576 174 671 q 351 458 174 504 l 460 432 q 663 237 663 383 q 357 0 663 0 z "},"t":{"ha":384,"x_min":21,"x_max":374,"o":"m 130 671 l 21 671 l 21 773 l 130 773 l 130 1017 l 232 1017 l 232 773 l 374 773 l 374 671 l 232 671 l 232 197 q 374 102 232 102 l 374 0 q 130 197 130 0 l 130 671 z "},"u":{"ha":803,"x_min":92,"x_max":703,"o":"m 194 773 l 194 292 q 370 102 194 102 q 532 184 463 102 q 601 298 601 266 l 601 773 l 703 773 l 703 0 l 601 0 l 601 134 q 370 0 495 0 q 92 292 92 0 l 92 773 l 194 773 z "},"v":{"ha":630,"x_min":11,"x_max":619,"o":"m 513 773 l 619 773 l 370 0 l 260 0 l 11 773 l 117 773 l 315 164 l 513 773 z "},"w":{"ha":982,"x_min":11,"x_max":971,"o":"m 491 572 l 342 0 l 212 0 l 11 773 l 116 773 l 277 157 l 438 773 l 544 773 l 705 157 l 866 773 l 971 773 l 770 0 l 640 0 l 491 572 z "},"x":{"ha":638,"x_min":7,"x_max":631,"o":"m 319 294 l 127 0 l 7 0 l 259 387 l 7 773 l 127 773 l 319 479 l 511 773 l 631 773 l 380 387 l 631 0 l 511 0 l 319 294 z "},"y":{"ha":694,"x_min":11,"x_max":683,"o":"m 334 180 l 573 773 l 683 773 l 271 -244 l 161 -244 l 276 39 l 11 773 l 119 773 l 334 180 z "},"z":{"ha":726,"x_min":40,"x_max":686,"o":"m 666 671 l 170 102 l 686 102 l 686 0 l 40 0 l 40 102 l 536 671 l 60 671 l 60 773 l 666 773 l 666 671 z "},"{":{"ha":431,"x_min":41,"x_max":364,"o":"m 41 407 q 133 453 116 422 q 149 599 149 483 l 149 831 q 248 1004 149 972 q 300 1013 273 1013 l 364 1013 l 364 949 q 241 848 241 949 l 241 578 q 142 359 241 394 q 241 141 241 325 l 241 -130 q 364 -231 241 -231 l 364 -294 l 300 -294 q 248 -286 273 -294 q 149 -112 149 -254 l 149 120 q 133 266 149 236 q 41 312 116 296 l 41 407 z "},"|":{"ha":519,"x_min":209,"x_max":311,"o":"m 209 1017 l 311 1017 l 311 -244 l 209 -244 l 209 1017 z "},"}":{"ha":431,"x_min":66,"x_max":390,"o":"m 390 312 q 298 266 315 296 q 281 120 281 236 l 281 -112 q 183 -286 281 -254 q 130 -294 158 -294 l 66 -294 l 66 -231 q 190 -130 190 -231 l 190 141 q 288 359 190 325 q 190 578 190 394 l 190 848 q 66 949 190 949 l 66 1013 l 130 1013 q 183 1004 158 1013 q 281 831 281 972 l 281 599 q 298 453 281 483 q 390 407 315 422 l 390 312 z "},"~":{"ha":814,"x_min":102,"x_max":712,"o":"m 543 170 q 391 254 441 170 l 365 297 q 271 339 339 339 q 204 271 204 339 l 204 170 l 102 170 l 102 272 q 269 441 102 441 l 271 441 q 425 356 372 441 l 450 314 q 543 271 475 271 q 610 339 610 271 l 610 441 l 712 441 l 712 339 q 543 170 712 170 z "},"ក":{"ha":882,"x_min":68,"x_max":814,"o":"m 746 0 l 576 0 l 576 441 q 475 545 576 545 l 407 545 q 305 441 305 545 l 305 0 l 136 0 l 136 441 q 407 612 136 612 l 475 612 q 746 441 746 612 l 746 0 m 171 576 q 68 711 68 608 q 150 823 68 764 q 267 882 232 882 q 366 823 294 882 l 401 795 q 441 778 425 778 q 475 795 456 778 l 517 831 q 602 882 578 882 q 666 844 626 882 l 745 768 q 783 747 765 747 q 814 757 801 747 q 722 649 780 649 q 646 679 677 649 l 603 718 q 556 743 573 743 q 491 696 541 743 q 414 649 441 649 q 330 679 364 649 l 281 720 q 229 743 248 743 q 188 733 206 743 q 170 701 170 724 q 245 640 170 687 l 171 576 z "},"ខ":{"ha":882,"x_min":136,"x_max":746,"o":"m 136 328 q 576 635 576 522 l 576 676 q 475 808 576 808 l 407 808 q 305 687 311 808 q 353 608 353 663 q 227 529 353 529 q 182 539 203 529 q 148 569 160 550 q 136 608 136 588 l 136 705 l 137 705 q 407 882 153 882 l 475 882 q 746 676 746 882 l 746 635 q 305 323 746 503 l 305 205 q 407 73 305 73 l 475 73 q 576 205 576 73 l 576 319 l 703 390 l 746 390 l 746 205 q 475 0 746 0 l 407 0 q 136 205 136 0 l 136 328 z "},"គ":{"ha":882,"x_min":68,"x_max":814,"o":"m 305 255 q 376 300 335 289 q 406 304 392 304 q 487 226 466 304 q 491 199 491 211 q 434 136 491 151 q 399 163 427 163 q 378 160 390 163 q 305 31 336 149 l 298 0 l 136 0 l 136 441 q 407 612 136 612 l 475 612 q 746 441 746 612 l 746 0 l 576 0 l 576 441 q 475 545 576 545 l 407 545 q 305 441 305 545 l 305 255 m 171 576 q 68 711 68 608 q 150 823 68 764 q 267 882 232 882 q 366 823 294 882 l 401 795 q 441 778 425 778 q 475 795 456 778 l 517 831 q 602 882 578 882 q 666 844 626 882 l 745 768 q 783 747 765 747 q 814 757 801 747 q 722 649 780 649 q 646 679 677 649 l 603 718 q 556 743 573 743 q 491 696 541 743 q 414 649 441 649 q 330 679 364 649 l 281 720 q 229 743 248 743 q 188 733 206 743 q 170 701 170 724 q 245 640 170 687 l 171 576 z "},"ឃ":{"ha":1322,"x_min":68,"x_max":1255,"o":"m 203 713 q 170 771 203 771 q 136 707 136 771 q 170 653 136 653 q 203 713 203 653 m 576 554 q 487 635 576 616 q 550 788 499 694 q 633 882 600 882 q 701 857 659 882 l 742 831 q 786 820 761 820 q 814 823 799 820 q 785 736 808 782 q 734 686 763 690 l 727 686 q 652 710 698 686 q 612 722 628 722 q 583 703 592 722 l 568 669 q 746 588 746 635 l 746 205 q 882 68 746 68 q 1017 205 1017 68 l 1017 554 q 928 635 1017 616 q 990 788 940 694 q 1074 882 1041 882 q 1142 857 1099 882 l 1183 831 q 1227 820 1202 820 q 1255 823 1240 820 q 1226 736 1249 782 q 1175 686 1204 690 l 1168 686 q 1093 710 1139 686 q 1053 722 1069 722 q 1024 703 1033 722 l 1009 669 q 1187 588 1187 635 l 1187 205 q 882 0 1187 0 q 661 60 720 0 q 441 0 602 0 q 136 205 136 0 l 136 353 q 170 559 136 496 q 182 588 177 572 l 170 588 q 68 707 68 588 q 203 882 68 882 q 339 713 339 882 q 322 549 339 626 q 305 353 305 471 l 305 205 q 441 68 305 68 q 576 205 576 68 l 576 554 z "},"ង":{"ha":882,"x_min":68,"x_max":746,"o":"m 563 760 q 536 800 563 800 q 509 760 509 800 q 531 720 509 736 q 563 760 563 734 m 576 475 q 571 567 576 548 q 541 603 566 587 q 387 543 465 543 q 211 591 286 543 q 136 726 136 640 q 153 809 136 777 q 170 895 170 841 q 102 949 170 949 q 190 1017 102 1017 q 339 895 339 1017 q 322 812 339 844 q 305 726 305 780 q 336 662 305 679 q 387 644 366 644 q 471 675 430 644 q 400 760 400 708 q 536 882 400 882 q 685 760 685 882 q 612 659 685 707 q 641 644 626 652 q 746 475 746 585 l 746 0 l 576 0 l 441 131 l 305 0 l 136 0 l 136 319 q 68 389 68 342 q 95 466 68 437 q 170 495 122 495 l 237 495 q 305 437 305 495 l 305 110 l 439 242 l 576 110 l 576 475 z "},"ច":{"ha":882,"x_min":68,"x_max":814,"o":"m 305 595 l 305 205 q 407 68 305 68 l 475 68 q 576 205 576 68 l 576 420 q 509 491 509 444 q 536 567 509 538 q 610 597 563 597 l 678 597 q 746 538 746 597 l 746 205 q 475 0 746 0 l 407 0 q 136 205 136 0 l 136 591 q 68 711 68 628 q 150 823 68 764 q 267 882 232 882 q 366 823 294 882 l 401 795 q 441 778 425 778 q 475 795 456 778 l 517 831 q 602 882 578 882 q 666 844 626 882 l 745 768 q 783 747 765 747 q 814 757 801 747 q 722 649 780 649 q 646 679 677 649 l 603 718 q 556 743 573 743 q 491 696 541 743 q 414 649 441 649 q 330 679 364 649 l 281 720 q 229 743 248 743 q 188 733 206 743 q 170 701 170 724 q 305 595 170 673 z "},"ឆ":{"ha":882,"x_min":68,"x_max":814,"o":"m 576 412 l 576 509 q 553 494 570 509 q 536 456 536 479 q 549 422 536 432 q 576 412 558 414 m 305 294 q 475 147 475 294 q 529 68 475 68 q 576 147 576 68 l 576 344 q 498 374 524 347 q 468 456 468 403 q 502 553 468 509 q 576 597 536 597 l 678 597 q 746 509 746 597 l 746 147 q 529 0 746 0 q 373 147 373 0 q 305 226 373 226 l 305 117 q 234 0 305 0 l 163 0 q 68 194 68 0 q 136 288 68 265 l 136 591 q 68 711 68 628 q 150 823 68 764 q 267 882 232 882 q 366 823 294 882 l 401 795 q 441 778 425 778 q 475 795 456 778 l 517 831 q 602 882 578 882 q 666 844 626 882 l 745 768 q 783 747 765 747 q 814 757 801 747 q 722 649 780 649 q 646 679 677 649 l 603 718 q 556 743 573 743 q 491 696 541 743 q 414 649 441 649 q 330 679 364 649 l 281 720 q 229 743 248 743 q 188 733 206 743 q 170 701 170 724 q 305 595 170 673 l 305 294 z "},"ជ":{"ha":882,"x_min":68,"x_max":746,"o":"m 136 604 q 68 711 68 633 q 136 821 68 760 q 260 882 205 882 q 415 829 321 882 q 556 777 509 777 q 621 787 598 777 q 644 837 644 798 q 610 882 644 882 q 543 954 543 882 q 610 1027 543 1027 q 746 866 746 1027 q 691 727 746 785 q 522 669 637 669 q 313 708 419 669 q 229 739 262 739 q 184 725 199 739 q 170 692 170 711 q 305 618 170 675 l 305 117 l 439 242 l 576 110 l 576 597 l 746 597 l 746 0 l 576 0 l 441 131 l 305 0 l 136 0 l 136 604 z "},"ឈ":{"ha":1763,"x_min":136,"x_max":1695,"o":"m 305 68 q 356 93 339 68 q 373 176 373 117 q 360 216 373 205 q 322 226 348 226 l 305 226 l 305 68 m 1458 554 q 1369 635 1458 616 q 1431 788 1381 694 q 1514 882 1482 882 q 1583 857 1540 882 l 1624 831 q 1668 820 1643 820 q 1695 823 1681 820 q 1667 736 1689 782 q 1615 686 1645 690 l 1609 686 q 1534 710 1579 686 q 1494 722 1510 722 q 1465 703 1474 722 l 1450 669 q 1628 588 1628 635 l 1628 205 q 1356 0 1628 0 l 1289 0 q 1102 40 1169 0 q 916 0 1035 0 l 848 0 q 576 205 576 0 l 576 676 q 475 814 576 814 l 407 814 q 305 676 305 814 l 305 294 l 322 294 q 411 264 382 294 q 441 176 441 235 q 407 44 441 88 q 305 0 373 0 l 203 0 q 136 88 136 0 l 136 676 q 407 882 136 882 l 475 882 q 746 676 746 882 l 746 205 q 848 68 746 68 l 916 68 q 1017 205 1017 68 l 1017 554 q 928 635 1017 616 q 990 788 940 694 q 1074 882 1041 882 q 1142 857 1099 882 l 1183 831 q 1227 820 1202 820 q 1255 823 1240 820 q 1226 736 1249 782 q 1175 686 1204 690 l 1168 686 q 1093 710 1139 686 q 1053 722 1069 722 q 1024 703 1033 722 l 1009 669 q 1187 588 1187 635 l 1187 205 q 1289 68 1187 68 l 1356 68 q 1458 205 1458 68 l 1458 554 z "},"ញ":{"ha":1322,"x_min":136,"x_max":1187,"o":"m 1017 -180 q 994 -144 1017 -144 q 951 -106 951 -144 q 994 -68 951 -68 q 1187 -180 1187 -68 q 1109 -330 1187 -275 q 739 -407 1000 -407 q 404 -340 549 -407 q 163 -153 263 -277 q 136 -96 136 -124 q 171 -68 136 -68 q 260 -96 239 -68 q 469 -235 358 -199 q 739 -271 580 -271 q 944 -250 871 -271 q 1017 -180 1017 -228 m 305 68 q 356 93 339 68 q 373 176 373 117 q 360 216 373 205 q 322 226 348 226 l 305 226 l 305 68 m 746 0 l 576 0 l 576 678 q 541 751 576 751 q 445 678 512 751 q 349 751 378 751 q 305 678 305 751 l 305 294 l 322 294 q 411 264 382 294 q 441 176 441 235 q 407 44 441 88 q 305 0 373 0 l 203 0 q 136 88 136 0 l 136 678 q 207 821 136 761 q 315 882 278 882 q 445 791 345 882 q 576 882 545 882 q 684 821 612 882 q 704 802 694 812 q 757 844 725 826 q 896 882 824 882 q 1187 678 1187 882 l 1187 0 l 1017 0 l 1017 678 q 896 814 1017 814 q 788 778 829 814 q 746 678 746 742 l 746 0 z "},"ដ":{"ha":882,"x_min":136,"x_max":746,"o":"m 448 711 q 567 752 537 711 q 597 838 597 793 q 543 894 597 894 q 495 938 495 894 q 576 983 495 983 q 746 838 746 983 q 678 703 746 762 q 448 644 610 644 q 382 645 413 644 q 136 763 136 656 q 168 854 136 824 q 254 882 197 882 q 347 860 319 882 q 373 807 373 838 q 358 749 373 775 q 397 719 376 727 q 448 711 417 711 m 136 585 l 305 585 l 305 117 l 439 242 l 576 110 l 576 585 l 746 585 l 746 0 l 576 0 l 441 131 l 305 0 l 136 0 l 136 585 z "},"ឋ":{"ha":882,"x_min":68,"x_max":802,"o":"m 203 713 q 170 771 203 771 q 136 707 136 771 q 170 653 136 653 q 203 713 203 653 m 746 205 q 475 0 746 0 l 407 0 q 136 205 136 0 l 136 353 q 170 559 136 496 q 182 588 177 572 l 170 588 q 68 707 68 588 q 203 882 68 882 q 339 713 339 882 q 322 549 339 626 q 305 353 305 471 l 305 205 q 407 68 305 68 l 475 68 q 576 205 576 68 l 576 554 q 496 635 576 616 q 555 788 507 694 q 638 882 602 882 q 706 845 666 882 q 724 836 717 836 q 735 841 730 836 q 746 882 746 852 q 696 911 746 911 q 635 999 635 911 q 696 1058 635 1058 q 802 882 802 1058 l 800 882 l 800 875 q 776 736 800 795 q 719 676 752 676 q 644 707 686 676 q 610 721 623 721 q 587 703 595 721 l 572 669 q 746 588 746 635 l 746 205 z "},"ឌ":{"ha":882,"x_min":136,"x_max":746,"o":"m 746 -68 l 576 -68 l 576 83 q 374 0 501 0 q 136 176 136 0 l 136 333 l 349 425 q 576 617 576 517 l 576 705 q 536 769 576 769 q 441 705 507 769 q 347 769 375 769 q 305 705 305 769 l 305 661 q 379 643 357 661 q 401 588 401 624 q 311 500 401 500 q 136 558 136 500 l 136 705 q 206 829 136 777 q 312 882 276 882 q 441 803 342 882 q 570 882 540 882 q 676 829 606 882 q 746 705 746 777 l 746 617 q 426 368 746 505 l 305 315 l 305 176 q 374 68 305 68 q 576 193 477 68 l 576 329 l 746 388 l 746 -68 z "},"ឍ":{"ha":1322,"x_min":136,"x_max":1255,"o":"m 305 68 q 336 93 319 68 q 353 176 353 117 q 340 216 353 205 q 305 226 328 226 l 305 68 m 1187 147 q 970 0 1187 0 q 814 147 814 0 q 746 226 814 226 l 746 117 q 675 0 746 0 l 604 0 q 515 194 515 0 q 576 288 515 265 l 576 678 q 536 751 576 751 q 441 678 507 751 q 347 751 375 751 q 305 678 305 751 l 305 294 q 391 264 361 294 q 420 176 420 235 q 387 44 420 88 q 305 0 353 0 l 203 0 q 136 88 136 0 l 136 678 q 206 821 136 761 q 312 882 276 882 q 441 791 342 882 q 570 882 540 882 q 676 821 606 882 q 746 678 746 761 l 746 294 q 916 147 916 294 q 970 68 916 68 q 1017 147 1017 68 l 1017 554 q 928 635 1017 616 q 990 788 940 694 q 1074 882 1041 882 q 1142 857 1099 882 l 1183 831 q 1227 820 1202 820 q 1255 823 1240 820 q 1226 736 1249 782 q 1175 686 1204 690 l 1168 686 q 1093 710 1139 686 q 1053 722 1069 722 q 1024 703 1033 722 l 1009 669 q 1187 588 1187 635 l 1187 147 z "},"ណ":{"ha":1763,"x_min":136,"x_max":1628,"o":"m 305 68 q 356 93 339 68 q 373 176 373 117 q 360 216 373 205 q 322 226 348 226 l 305 226 l 305 68 m 1628 0 l 1458 0 l 1458 676 q 1356 814 1458 814 l 1289 814 q 1187 676 1187 814 l 1187 0 l 1017 0 l 882 131 l 746 0 l 576 0 l 576 676 q 475 814 576 814 l 407 814 q 305 676 305 814 l 305 294 l 322 294 q 411 264 382 294 q 441 176 441 235 q 407 44 441 88 q 305 0 373 0 l 203 0 q 136 88 136 0 l 136 676 q 407 882 136 882 l 475 882 q 746 676 746 882 l 746 117 l 880 242 l 1017 110 l 1017 676 q 1289 882 1017 882 l 1356 882 q 1628 676 1628 882 l 1628 0 z "},"ត":{"ha":882,"x_min":68,"x_max":814,"o":"m 305 294 l 322 294 q 411 264 382 294 q 441 176 441 235 q 407 44 441 88 q 305 0 373 0 l 203 0 q 136 88 136 0 l 136 441 q 407 612 136 612 l 475 612 q 746 441 746 612 l 746 0 l 576 0 l 576 441 q 475 545 576 545 l 407 545 q 305 441 305 545 l 305 294 m 305 68 q 356 93 339 68 q 373 176 373 117 q 360 216 373 205 q 322 226 348 226 l 305 226 l 305 68 m 171 576 q 68 711 68 608 q 150 823 68 764 q 267 882 232 882 q 366 823 294 882 l 401 795 q 441 778 425 778 q 475 795 456 778 l 517 831 q 602 882 578 882 q 666 844 626 882 l 745 768 q 783 747 765 747 q 814 757 801 747 q 722 649 780 649 q 646 679 677 649 l 603 718 q 556 743 573 743 q 491 696 541 743 q 414 649 441 649 q 330 679 364 649 l 281 720 q 229 743 248 743 q 188 733 206 743 q 170 701 170 724 q 245 640 170 687 l 171 576 z "},"ថ":{"ha":882,"x_min":68,"x_max":746,"o":"m 305 205 q 407 68 305 68 l 475 68 q 576 205 576 68 l 576 420 q 509 491 509 444 q 536 567 509 538 q 610 597 563 597 l 678 597 q 746 538 746 597 l 746 205 q 475 0 746 0 l 407 0 q 136 205 136 0 l 136 604 q 68 711 68 633 q 136 821 68 760 q 260 882 205 882 q 415 829 321 882 q 556 777 509 777 q 621 787 598 777 q 644 837 644 798 q 610 882 644 882 q 543 954 543 882 q 610 1027 543 1027 q 746 866 746 1027 q 691 727 746 785 q 522 669 637 669 q 313 708 419 669 q 229 739 262 739 q 184 725 199 739 q 170 692 170 711 q 305 618 170 675 l 305 205 z "},"ទ":{"ha":882,"x_min":136,"x_max":746,"o":"m 305 597 q 543 398 305 398 q 644 507 543 507 q 746 412 746 507 q 678 330 746 330 l 712 271 l 712 176 q 441 0 712 0 q 170 176 170 0 l 170 276 l 339 276 l 339 176 q 441 68 339 68 q 543 176 543 68 l 543 330 q 136 597 136 330 l 136 676 q 407 882 136 882 l 475 882 q 746 734 728 882 l 746 650 q 734 610 746 629 q 700 581 722 591 q 654 570 678 570 q 575 581 597 570 q 541 610 553 591 q 529 650 529 629 q 543 692 529 670 q 572 716 557 713 l 576 716 q 475 814 571 814 l 407 814 q 305 676 305 814 l 305 597 z "},"ធ":{"ha":882,"x_min":68,"x_max":814,"o":"m 305 117 l 439 242 l 576 110 l 576 420 q 509 491 509 444 q 536 567 509 538 q 610 597 563 597 l 678 597 q 746 538 746 597 l 746 0 l 576 0 l 441 131 l 305 0 l 136 0 l 136 591 q 68 711 68 628 q 150 823 68 764 q 267 882 232 882 q 366 823 294 882 l 401 795 q 441 778 425 778 q 475 795 456 778 l 517 831 q 602 882 578 882 q 666 844 626 882 l 745 768 q 783 747 765 747 q 814 757 801 747 q 722 649 780 649 q 646 679 677 649 l 603 718 q 556 743 573 743 q 491 696 541 743 q 414 649 441 649 q 330 679 364 649 l 281 720 q 229 743 248 743 q 188 733 206 743 q 170 701 170 724 q 305 595 170 673 l 305 117 z "},"ន":{"ha":882,"x_min":136,"x_max":746,"o":"m 136 353 l 305 353 l 305 250 q 408 144 366 221 q 519 68 450 68 q 576 176 576 68 l 576 337 l 465 374 q 136 646 136 483 l 136 676 q 407 882 136 882 l 475 882 q 746 705 728 882 l 746 608 q 734 569 746 588 q 700 539 722 550 q 654 529 678 529 q 575 539 597 529 q 541 569 553 550 q 529 608 529 588 q 543 667 529 649 q 572 686 557 684 l 576 687 q 475 814 571 814 l 407 814 q 305 676 305 814 l 305 646 q 490 441 305 507 l 746 356 l 746 176 q 519 0 746 0 q 392 44 437 0 q 305 116 347 88 l 305 0 l 136 0 l 136 353 z "},"ប":{"ha":882,"x_min":46,"x_max":814,"o":"m 576 554 q 487 635 576 616 q 550 788 499 694 q 633 882 600 882 q 701 857 659 882 l 742 831 q 786 820 761 820 q 814 823 799 820 q 785 736 808 782 q 734 686 763 690 l 727 686 q 652 710 698 686 q 612 722 628 722 q 583 703 592 722 l 568 669 q 746 588 746 635 l 746 205 q 475 0 746 0 l 407 0 q 136 205 136 0 l 136 554 q 46 635 136 616 q 109 788 58 694 q 192 882 159 882 q 260 857 218 882 l 301 831 q 345 820 320 820 q 373 823 358 820 q 345 736 367 782 q 293 686 322 690 l 286 686 q 212 710 257 686 q 172 722 187 722 q 142 703 151 722 l 127 669 q 305 588 305 635 l 305 205 q 407 68 305 68 l 475 68 q 576 205 576 68 l 576 554 z "},"ផ":{"ha":882,"x_min":68,"x_max":746,"o":"m 576 412 l 576 509 q 553 494 570 509 q 536 456 536 479 q 549 422 536 432 q 576 412 558 414 m 305 117 l 439 242 l 576 110 l 576 344 q 498 374 524 347 q 468 456 468 403 q 502 553 468 509 q 576 597 536 597 l 678 597 q 746 509 746 597 l 746 0 l 576 0 l 441 131 l 305 0 l 136 0 l 136 604 q 68 711 68 633 q 136 821 68 760 q 260 882 205 882 q 415 829 321 882 q 556 777 509 777 q 621 787 598 777 q 644 837 644 798 q 610 882 644 882 q 543 954 543 882 q 610 1027 543 1027 q 746 866 746 1027 q 691 727 746 785 q 522 669 637 669 q 313 708 419 669 q 229 739 262 739 q 184 725 199 739 q 170 692 170 711 q 305 618 170 675 l 305 117 z "},"ព":{"ha":882,"x_min":136,"x_max":746,"o":"m 305 68 q 356 93 339 68 q 373 176 373 117 q 360 216 373 205 q 322 226 348 226 l 305 226 l 305 68 m 305 294 l 322 294 q 411 264 382 294 q 441 176 441 235 q 407 44 441 88 q 305 0 373 0 l 203 0 q 136 88 136 0 l 136 678 q 206 821 136 761 q 312 882 276 882 q 441 791 342 882 q 570 882 540 882 q 676 821 606 882 q 746 678 746 761 l 746 0 l 576 0 l 576 678 q 536 751 576 751 q 441 678 507 751 q 347 751 375 751 q 305 678 305 751 l 305 294 z "},"ភ":{"ha":882,"x_min":68,"x_max":814,"o":"m 198 226 l 170 226 q 136 147 136 226 q 170 90 136 90 q 203 168 203 90 q 198 226 203 204 m 576 441 q 475 545 576 545 l 407 545 q 305 441 305 545 q 322 333 305 410 q 339 168 339 256 q 190 0 339 0 q 68 147 68 0 q 170 294 68 294 l 182 294 q 170 323 177 309 q 136 441 136 386 q 407 612 136 612 l 475 612 q 746 441 746 612 l 746 0 l 576 0 l 576 441 m 171 576 q 68 711 68 608 q 150 823 68 764 q 267 882 232 882 q 366 823 294 882 l 401 795 q 441 778 425 778 q 475 795 456 778 l 517 831 q 602 882 578 882 q 666 844 626 882 l 745 768 q 783 747 765 747 q 814 757 801 747 q 722 649 780 649 q 646 679 677 649 l 603 718 q 556 743 573 743 q 491 696 541 743 q 414 649 441 649 q 330 679 364 649 l 281 720 q 229 743 248 743 q 188 733 206 743 q 170 701 170 724 q 245 640 170 687 l 171 576 z "},"ម":{"ha":882,"x_min":46,"x_max":814,"o":"m 305 475 l 576 475 l 576 554 q 487 635 576 616 q 550 788 499 694 q 633 882 600 882 q 701 857 659 882 l 742 831 q 786 820 761 820 q 814 823 799 820 q 785 736 808 782 q 734 686 763 690 l 727 686 q 652 710 698 686 q 612 722 628 722 q 583 703 592 722 l 568 669 q 746 588 746 635 l 746 205 q 475 0 746 0 l 407 0 q 136 205 136 0 l 136 554 q 46 635 136 616 q 109 788 58 694 q 192 882 159 882 q 260 857 218 882 l 301 831 q 345 820 320 820 q 373 823 358 820 q 345 736 367 782 q 293 686 322 690 l 286 686 q 212 710 257 686 q 172 722 187 722 q 142 703 151 722 l 127 669 q 305 588 305 635 l 305 475 m 576 407 l 305 407 l 305 205 q 407 68 305 68 l 475 68 q 576 205 576 68 l 576 407 z "},"យ":{"ha":1322,"x_min":136,"x_max":1255,"o":"m 305 791 l 305 656 q 339 734 339 656 q 305 791 339 791 m 1017 554 q 928 635 1017 616 q 990 788 940 694 q 1074 882 1041 882 q 1142 857 1099 882 l 1183 831 q 1227 820 1202 820 q 1255 823 1240 820 q 1226 736 1249 782 q 1175 686 1204 690 l 1168 686 q 1093 710 1139 686 q 1053 722 1069 722 q 1024 703 1033 722 l 1009 669 q 1187 588 1187 635 l 1187 205 q 882 0 1187 0 q 661 60 720 0 q 441 0 602 0 q 136 205 136 0 l 136 814 q 210 882 136 882 l 285 882 q 407 734 407 882 q 305 588 407 588 l 305 205 q 441 68 305 68 q 576 205 576 68 l 576 554 q 487 635 576 616 q 550 788 499 694 q 633 882 600 882 q 701 857 659 882 l 742 831 q 786 820 761 820 q 814 823 799 820 q 785 736 808 782 q 734 686 763 690 l 727 686 q 652 710 698 686 q 612 722 628 722 q 583 703 592 722 l 568 669 q 746 588 746 635 l 746 205 q 882 68 746 68 q 1017 205 1017 68 l 1017 554 z "},"រ":{"ha":441,"x_min":46,"x_max":373,"o":"m 153 212 q 136 147 136 212 q 153 97 136 97 q 170 168 170 97 q 153 212 170 212 m 136 554 q 46 635 136 616 q 109 788 58 694 q 192 882 159 882 q 260 857 218 882 l 301 831 q 345 820 320 820 q 373 823 358 820 q 345 736 367 782 q 293 686 322 690 l 286 686 q 212 710 257 686 q 172 722 187 722 q 142 703 151 722 l 127 669 q 305 588 305 635 l 305 87 q 248 0 305 0 l 163 0 q 68 147 68 0 q 136 289 68 267 l 136 554 z "},"ល":{"ha":1322,"x_min":136,"x_max":1255,"o":"m 305 68 q 356 93 339 68 q 373 176 373 117 q 360 216 373 205 q 322 226 348 226 l 305 226 l 305 68 m 1187 205 q 916 0 1187 0 l 848 0 q 576 205 576 0 l 576 676 q 475 814 576 814 l 407 814 q 305 676 305 814 l 305 294 l 322 294 q 411 264 382 294 q 441 176 441 235 q 407 44 441 88 q 305 0 373 0 l 203 0 q 136 88 136 0 l 136 676 q 407 882 136 882 l 475 882 q 746 676 746 882 l 746 205 q 848 68 746 68 l 916 68 q 1017 205 1017 68 l 1017 554 q 928 635 1017 616 q 990 788 940 694 q 1074 882 1041 882 q 1142 857 1099 882 l 1183 831 q 1227 820 1202 820 q 1255 823 1240 820 q 1226 736 1249 782 q 1175 686 1204 690 l 1168 686 q 1093 710 1139 686 q 1053 722 1069 722 q 1024 703 1033 722 l 1009 669 q 1187 588 1187 635 l 1187 205 z "},"វ":{"ha":441,"x_min":56,"x_max":361,"o":"m 153 212 q 136 147 136 212 q 153 97 136 97 q 170 168 170 97 q 153 212 170 212 m 136 554 q 56 635 136 616 q 114 788 66 694 q 197 882 161 882 q 265 845 225 882 q 283 836 276 836 q 294 841 290 836 q 305 882 305 852 q 256 911 305 911 q 195 999 195 911 q 256 1058 195 1058 q 361 882 361 1058 l 359 882 l 359 875 q 335 736 359 795 q 278 676 311 676 q 203 707 245 676 q 169 721 182 721 q 146 703 154 721 l 131 669 q 305 588 305 635 l 305 87 q 248 0 305 0 l 163 0 q 68 147 68 0 q 136 289 68 267 l 136 554 z "},"ឝ":{"ha":882,"x_min":68,"x_max":814,"o":"m 746 323 l 814 323 l 814 256 l 746 256 l 746 0 l 576 0 l 576 256 l 509 256 l 509 323 l 576 323 l 576 441 q 475 545 576 545 l 407 545 q 305 441 305 545 l 305 255 q 376 300 335 289 q 406 304 392 304 q 487 226 466 304 q 491 199 491 211 q 434 136 491 151 q 399 163 427 163 q 378 160 390 163 q 305 31 336 149 l 298 0 l 136 0 l 136 441 q 407 612 136 612 l 475 612 q 746 441 746 612 l 746 323 m 171 576 q 68 711 68 608 q 150 823 68 764 q 267 882 232 882 q 366 823 294 882 l 401 795 q 441 778 425 778 q 475 795 456 778 l 517 831 q 602 882 578 882 q 666 844 626 882 l 745 768 q 783 747 765 747 q 814 757 801 747 q 722 649 780 649 q 646 679 677 649 l 603 718 q 556 743 573 743 q 491 696 541 743 q 414 649 441 649 q 330 679 364 649 l 281 720 q 229 743 248 743 q 188 733 206 743 q 170 701 170 724 q 245 640 170 687 l 171 576 z "},"ឞ":{"ha":882,"x_min":46,"x_max":814,"o":"m 576 349 l 509 349 l 509 417 l 576 417 l 576 554 q 487 635 576 616 q 550 788 499 694 q 633 882 600 882 q 701 857 659 882 l 742 831 q 786 820 761 820 q 814 823 799 820 q 785 736 808 782 q 734 686 763 690 l 727 686 q 652 710 698 686 q 612 722 628 722 q 583 703 592 722 l 568 669 q 746 588 746 635 l 746 417 l 814 417 l 814 349 l 746 349 l 746 205 q 475 0 746 0 l 407 0 q 136 205 136 0 l 136 554 q 46 635 136 616 q 109 788 58 694 q 192 882 159 882 q 260 857 218 882 l 301 831 q 345 820 320 820 q 373 823 358 820 q 345 736 367 782 q 293 686 322 690 l 286 686 q 212 710 257 686 q 172 722 187 722 q 142 703 151 722 l 127 669 q 305 588 305 635 l 305 205 q 407 68 305 68 l 475 68 q 576 205 576 68 l 576 349 z "},"ស":{"ha":1322,"x_min":136,"x_max":1255,"o":"m 305 68 q 356 93 339 68 q 373 176 373 117 q 360 216 373 205 q 322 226 348 226 l 305 226 l 305 68 m 1017 554 q 928 635 1017 616 q 990 788 940 694 q 1074 882 1041 882 q 1142 857 1099 882 l 1183 831 q 1227 820 1202 820 q 1255 823 1240 820 q 1226 736 1249 782 q 1175 686 1204 690 l 1168 686 q 1093 710 1139 686 q 1053 722 1069 722 q 1024 703 1033 722 l 1009 669 q 1187 588 1187 635 l 1187 205 q 916 0 1187 0 l 848 0 q 576 205 576 0 l 576 441 q 475 578 576 578 l 407 578 q 305 441 305 578 l 305 294 l 322 294 q 411 264 382 294 q 441 176 441 235 q 407 44 441 88 q 305 0 373 0 l 203 0 q 136 88 136 0 l 136 441 q 276 630 136 589 q 150 672 237 656 q 254 806 173 726 q 374 881 330 881 l 380 881 q 473 848 416 878 l 527 819 q 587 802 553 806 q 627 801 606 801 q 578 724 614 764 q 500 684 542 684 l 491 686 q 389 719 450 690 q 334 736 356 733 l 330 736 q 267 705 303 736 q 431 646 374 673 l 475 646 q 746 441 746 646 l 746 205 q 848 68 746 68 l 916 68 q 1017 205 1017 68 l 1017 554 z "},"ហ":{"ha":1322,"x_min":46,"x_max":1187,"o":"m 305 205 q 407 68 305 68 l 475 68 q 576 205 576 68 l 576 676 q 848 882 576 882 l 916 882 q 1187 676 1187 882 l 1187 0 l 1017 0 l 1017 676 q 916 814 1017 814 l 848 814 q 746 676 746 814 l 746 205 q 475 0 746 0 l 407 0 q 136 205 136 0 l 136 554 q 46 635 136 616 q 109 788 58 694 q 192 882 159 882 q 260 857 218 882 l 301 831 q 345 820 320 820 q 373 823 358 820 q 345 736 367 782 q 293 686 322 690 l 286 686 q 212 710 257 686 q 172 722 187 722 q 142 703 151 722 l 127 669 q 305 588 305 635 l 305 205 z "},"ឡ":{"ha":1322,"x_min":136,"x_max":1255,"o":"m 543 -136 q 509 -170 509 -136 q 543 -203 509 -203 l 543 -136 m 305 597 q 543 398 305 398 q 644 507 543 507 q 746 412 746 507 q 678 330 746 330 l 712 271 l 712 176 q 441 0 712 0 q 170 176 170 0 l 170 276 l 339 276 l 339 176 q 441 68 339 68 q 543 176 543 68 l 543 330 q 136 597 136 330 l 136 676 q 407 882 136 882 l 475 882 q 746 734 728 882 l 746 650 q 734 610 746 629 q 700 581 722 591 q 654 570 678 570 q 575 581 597 570 q 541 610 553 591 q 529 650 529 629 q 543 692 529 670 q 572 716 557 713 l 576 716 q 475 814 571 814 l 407 814 q 305 676 305 814 l 305 597 m 1187 -441 l 1017 -441 l 865 -329 l 712 -441 l 543 -441 l 543 -271 q 441 -170 441 -271 q 543 -68 441 -68 l 627 -68 q 712 -136 712 -68 l 712 -340 l 865 -228 l 1017 -340 l 1017 554 q 928 635 1017 616 q 990 788 940 694 q 1074 882 1041 882 q 1142 857 1099 882 l 1183 831 q 1227 820 1202 820 q 1255 823 1240 820 q 1226 736 1249 782 q 1175 686 1204 690 l 1168 686 q 1093 710 1139 686 q 1053 722 1069 722 q 1024 703 1033 722 l 1009 669 q 1187 588 1187 635 l 1187 -441 z "},"អ":{"ha":882,"x_min":46,"x_max":814,"o":"m 593 212 q 576 147 576 212 q 593 97 576 97 q 610 168 610 97 q 593 212 610 212 m 153 212 q 136 147 136 212 q 153 97 136 97 q 170 168 170 97 q 153 212 170 212 m 576 459 l 576 554 q 487 635 576 616 q 550 788 499 694 q 633 882 600 882 q 701 857 659 882 l 742 831 q 786 820 761 820 q 814 823 799 820 q 785 736 808 782 q 734 686 763 690 l 727 686 q 652 710 698 686 q 612 722 628 722 q 583 703 592 722 l 568 669 q 746 588 746 635 l 746 87 q 688 0 746 0 l 604 0 q 509 147 509 0 q 576 289 509 267 l 576 391 l 305 391 l 305 87 q 248 0 305 0 l 163 0 q 68 147 68 0 q 136 289 68 267 l 136 554 q 46 635 136 616 q 109 788 58 694 q 192 882 159 882 q 260 857 218 882 l 301 831 q 345 820 320 820 q 373 823 358 820 q 345 736 367 782 q 293 686 322 690 l 286 686 q 212 710 257 686 q 172 722 187 722 q 142 703 151 722 l 127 669 q 305 588 305 635 l 305 459 l 576 459 z "},"ឣ":{"ha":882,"x_min":46,"x_max":814,"o":"m 593 212 q 576 147 576 212 q 593 97 576 97 q 610 168 610 97 q 593 212 610 212 m 153 212 q 136 147 136 212 q 153 97 136 97 q 170 168 170 97 q 153 212 170 212 m 576 459 l 576 554 q 487 635 576 616 q 550 788 499 694 q 633 882 600 882 q 701 857 659 882 l 742 831 q 786 820 761 820 q 814 823 799 820 q 785 736 808 782 q 734 686 763 690 l 727 686 q 652 710 698 686 q 612 722 628 722 q 583 703 592 722 l 568 669 q 746 588 746 635 l 746 87 q 688 0 746 0 l 604 0 q 509 147 509 0 q 576 289 509 267 l 576 391 l 305 391 l 305 87 q 248 0 305 0 l 163 0 q 68 147 68 0 q 136 289 68 267 l 136 554 q 46 635 136 616 q 109 788 58 694 q 192 882 159 882 q 260 857 218 882 l 301 831 q 345 820 320 820 q 373 823 358 820 q 345 736 367 782 q 293 686 322 690 l 286 686 q 212 710 257 686 q 172 722 187 722 q 142 703 151 722 l 127 669 q 305 588 305 635 l 305 459 l 576 459 z "},"ឤ":{"ha":1322,"x_min":46,"x_max":1187,"o":"m 593 212 q 576 147 576 212 q 593 97 576 97 q 610 168 610 97 q 593 212 610 212 m 153 212 q 136 147 136 212 q 153 97 136 97 q 170 168 170 97 q 153 212 170 212 m 487 635 q 601 808 522 735 q 782 882 680 882 q 962 847 882 882 q 1187 610 1187 753 l 1187 0 l 1017 0 l 1017 610 q 915 696 1017 647 q 748 745 812 745 q 642 726 684 745 q 582 669 599 707 q 746 588 746 635 l 746 87 q 688 0 746 0 l 604 0 q 509 147 509 0 q 576 289 509 267 l 576 391 l 305 391 l 305 87 q 248 0 305 0 l 163 0 q 68 147 68 0 q 136 289 68 267 l 136 554 q 46 635 136 616 q 109 788 58 694 q 192 882 159 882 q 260 857 218 882 l 301 831 q 345 820 320 820 q 373 823 358 820 q 345 736 367 782 q 293 686 322 690 l 286 686 q 212 710 257 686 q 172 722 187 722 q 142 703 151 722 l 127 669 q 305 588 305 635 l 305 459 l 576 459 l 576 554 q 487 635 576 616 z "},"ឥ":{"ha":882,"x_min":68,"x_max":746,"o":"m 154 589 q 68 708 68 631 q 136 820 68 758 q 260 882 205 882 q 415 828 321 882 q 556 775 509 775 q 621 786 598 775 q 644 836 644 796 q 610 882 644 882 q 543 956 543 882 q 610 1029 543 1029 q 746 866 746 1029 q 691 725 746 784 q 522 667 637 667 q 313 706 419 667 q 229 736 262 736 q 184 722 199 736 q 170 690 170 708 q 245 640 170 676 l 154 589 m 305 294 l 322 294 q 411 264 382 294 q 441 176 441 235 q 407 44 441 88 q 305 0 373 0 l 203 0 q 136 88 136 0 l 136 441 q 407 612 136 612 l 475 612 q 746 441 746 612 l 746 0 l 576 0 l 576 441 q 475 545 576 545 l 407 545 q 305 441 305 545 l 305 294 m 305 68 q 356 93 339 68 q 373 176 373 117 q 360 216 373 205 q 322 226 348 226 l 305 226 l 305 68 z "},"ឦ":{"ha":1322,"x_min":136,"x_max":1187,"o":"m 305 -373 q 332 -326 332 -373 q 305 -305 332 -305 l 305 -373 m 305 68 q 356 93 339 68 q 373 176 373 117 q 360 216 373 205 q 322 226 348 226 l 305 226 l 305 68 m 746 0 l 576 0 l 576 676 q 475 814 576 814 l 407 814 q 305 676 305 814 l 305 294 l 322 294 q 411 264 382 294 q 441 176 441 235 q 407 44 441 88 q 305 0 373 0 l 203 0 q 136 88 136 0 l 136 676 q 407 882 136 882 l 475 882 q 746 676 746 882 l 746 0 m 1187 -302 q 865 -441 1187 -441 q 576 -302 576 -441 l 576 -203 q 551 -153 576 -170 q 441 -136 526 -136 q 331 -153 356 -136 q 305 -203 305 -170 l 305 -237 q 400 -326 400 -237 q 305 -441 400 -441 l 237 -441 q 170 -373 170 -441 l 170 -203 q 237 -102 170 -136 q 441 -68 305 -68 q 644 -102 576 -68 q 712 -203 712 -136 l 712 -302 q 865 -373 712 -373 q 1017 -302 1017 -373 l 1017 929 q 892 1051 1017 1051 l 746 1051 q 610 1167 610 1051 q 617 1213 610 1190 q 624 1272 624 1236 q 597 1306 624 1293 q 669 1356 597 1356 q 793 1272 793 1356 q 787 1211 793 1229 q 780 1167 780 1192 q 848 1119 780 1119 l 892 1119 q 1187 929 1187 1119 l 1187 -302 z "},"ឧ":{"ha":882,"x_min":136,"x_max":746,"o":"m 576 64 q 565 58 571 60 q 441 0 515 0 q 237 68 338 0 q 136 185 136 136 q 290 342 136 276 l 484 444 q 576 619 576 485 l 576 676 q 475 808 576 808 l 407 808 q 305 687 311 808 q 353 608 353 663 q 227 529 353 529 q 182 539 203 529 q 148 569 160 550 q 136 608 136 588 l 136 705 l 137 705 q 407 882 153 882 l 475 882 q 746 676 746 882 l 746 619 q 526 374 746 476 l 341 271 q 305 185 305 252 q 350 126 305 142 q 448 111 394 111 q 536 158 495 111 q 576 248 576 205 l 576 312 l 715 386 l 746 386 l 746 -68 l 576 -68 l 576 64 z "},"ឨ":{"ha":882,"x_min":68,"x_max":814,"o":"m 171 836 q 68 990 68 873 q 150 1116 68 1049 q 267 1183 232 1183 q 366 1116 294 1183 l 401 1085 q 441 1065 425 1065 q 475 1085 456 1065 l 517 1126 q 602 1183 578 1183 q 666 1141 626 1183 l 745 1055 q 783 1029 765 1029 q 814 1041 801 1029 q 722 919 780 919 q 646 953 677 919 l 603 997 q 556 1025 573 1025 q 491 972 541 1025 q 414 919 441 919 q 330 953 364 919 l 281 999 q 229 1025 248 1025 q 188 1015 206 1025 q 170 979 170 1004 q 245 909 170 962 l 171 836 m 576 64 q 565 58 571 60 q 441 0 515 0 q 237 68 338 0 q 136 185 136 136 q 290 342 136 276 l 484 444 q 576 619 576 485 l 576 676 q 475 808 576 808 l 407 808 q 305 687 311 808 q 353 608 353 663 q 227 529 353 529 q 182 539 203 529 q 148 569 160 550 q 136 608 136 588 l 136 705 l 137 705 q 407 882 153 882 l 475 882 q 746 676 746 882 l 746 619 q 526 374 746 476 l 341 271 q 305 185 305 252 q 350 126 305 142 q 448 111 394 111 q 536 158 495 111 q 576 248 576 205 l 576 312 l 715 386 l 746 386 l 746 -68 l 576 -68 l 576 64 z "},"ឩ":{"ha":882,"x_min":136,"x_max":916,"o":"m 814 373 l 916 373 l 916 -68 l 814 -68 l 814 373 m 576 64 q 565 58 571 60 q 441 0 515 0 q 237 68 338 0 q 136 185 136 136 q 290 342 136 276 l 484 444 q 576 619 576 485 l 576 676 q 475 808 576 808 l 407 808 q 305 687 311 808 q 353 608 353 663 q 227 529 353 529 q 182 539 203 529 q 148 569 160 550 q 136 608 136 588 l 136 705 l 137 705 q 407 882 153 882 l 475 882 q 746 676 746 882 l 746 619 q 526 374 746 476 l 341 271 q 305 185 305 252 q 350 126 305 142 q 448 111 394 111 q 536 158 495 111 q 576 248 576 205 l 576 312 l 715 386 l 746 386 l 746 -68 l 576 -68 l 576 64 z "},"ឪ":{"ha":882,"x_min":68,"x_max":746,"o":"m 154 836 q 68 964 68 882 q 136 1083 68 1017 q 260 1149 205 1149 q 415 1092 321 1149 q 556 1036 509 1036 q 621 1047 598 1036 q 644 1101 644 1058 q 610 1149 644 1149 q 543 1227 543 1149 q 610 1307 543 1307 q 746 1132 746 1307 q 691 982 746 1045 q 522 919 637 919 q 313 961 419 919 q 229 994 262 994 q 184 979 199 994 q 170 944 170 964 q 245 892 170 930 l 154 836 m 576 64 q 565 58 571 60 q 441 0 515 0 q 237 68 338 0 q 136 185 136 136 q 290 342 136 276 l 484 444 q 576 619 576 485 l 576 676 q 475 808 576 808 l 407 808 q 305 687 311 808 q 353 608 353 663 q 227 529 353 529 q 182 539 203 529 q 148 569 160 550 q 136 608 136 588 l 136 705 l 137 705 q 407 882 153 882 l 475 882 q 746 676 746 882 l 746 619 q 526 374 746 476 l 341 271 q 305 185 305 252 q 350 126 305 142 q 448 111 394 111 q 536 158 495 111 q 576 248 576 205 l 576 312 l 715 386 l 746 386 l 746 -68 l 576 -68 l 576 64 z "},"ឫ":{"ha":882,"x_min":45,"x_max":814,"o":"m 519 -111 q 608 -68 519 -68 q 724 -104 689 -68 q 746 -169 746 -130 q 740 -214 746 -190 q 573 -375 716 -309 q 180 -443 430 -443 q 45 -414 45 -443 q 294 -376 210 -393 q 467 -306 378 -359 q 571 -202 556 -254 q 574 -182 574 -191 q 547 -155 574 -155 q 519 -111 519 -155 m 576 554 q 487 635 576 616 q 550 788 499 694 q 633 882 600 882 q 701 857 659 882 l 742 831 q 786 820 761 820 q 814 823 799 820 q 785 736 808 782 q 734 686 763 690 l 727 686 q 652 710 698 686 q 612 722 628 722 q 583 703 592 722 l 568 669 q 746 588 746 635 l 746 205 q 475 0 746 0 l 407 0 q 136 205 136 0 l 136 554 q 46 635 136 616 q 109 788 58 694 q 192 882 159 882 q 260 857 218 882 l 301 831 q 345 820 320 820 q 373 823 358 820 q 345 736 367 782 q 293 686 322 690 l 286 686 q 212 710 257 686 q 172 722 187 722 q 142 703 151 722 l 127 669 q 305 588 305 635 l 305 205 q 407 68 305 68 l 475 68 q 576 205 576 68 l 576 554 z "},"ឬ":{"ha":882,"x_min":45,"x_max":814,"o":"m 695 -292 q 746 -320 710 -320 q 814 -380 814 -320 q 746 -439 814 -439 q 622 -349 650 -439 q 573 -375 600 -363 q 180 -443 430 -443 q 45 -414 45 -443 q 294 -376 210 -393 q 467 -306 378 -359 q 571 -202 556 -254 q 574 -182 574 -191 q 547 -155 574 -155 q 519 -111 519 -155 q 608 -68 519 -68 q 724 -104 689 -68 q 746 -169 746 -130 q 740 -214 746 -190 q 695 -292 729 -256 m 576 554 q 487 635 576 616 q 550 788 499 694 q 633 882 600 882 q 701 857 659 882 l 742 831 q 786 820 761 820 q 814 823 799 820 q 785 736 808 782 q 734 686 763 690 l 727 686 q 652 710 698 686 q 612 722 628 722 q 583 703 592 722 l 568 669 q 746 588 746 635 l 746 205 q 475 0 746 0 l 407 0 q 136 205 136 0 l 136 554 q 46 635 136 616 q 109 788 58 694 q 192 882 159 882 q 260 857 218 882 l 301 831 q 345 820 320 820 q 373 823 358 820 q 345 736 367 782 q 293 686 322 690 l 286 686 q 212 710 257 686 q 172 722 187 722 q 142 703 151 722 l 127 669 q 305 588 305 635 l 305 205 q 407 68 305 68 l 475 68 q 576 205 576 68 l 576 554 z "},"ឭ":{"ha":882,"x_min":45,"x_max":746,"o":"m 519 -111 q 608 -68 519 -68 q 724 -104 689 -68 q 746 -169 746 -130 q 740 -214 746 -190 q 573 -375 716 -309 q 180 -443 430 -443 q 45 -414 45 -443 q 294 -376 210 -393 q 467 -306 378 -359 q 571 -202 556 -254 q 574 -182 574 -191 q 547 -155 574 -155 q 519 -111 519 -155 m 305 68 q 356 93 339 68 q 373 176 373 117 q 360 216 373 205 q 322 226 348 226 l 305 226 l 305 68 m 305 294 l 322 294 q 411 264 382 294 q 441 176 441 235 q 407 44 441 88 q 305 0 373 0 l 203 0 q 136 88 136 0 l 136 678 q 206 821 136 761 q 312 882 276 882 q 441 791 342 882 q 570 882 540 882 q 676 821 606 882 q 746 678 746 761 l 746 0 l 576 0 l 576 678 q 536 751 576 751 q 441 678 507 751 q 347 751 375 751 q 305 678 305 751 l 305 294 z "},"ឮ":{"ha":882,"x_min":45,"x_max":814,"o":"m 695 -292 q 746 -320 710 -320 q 814 -380 814 -320 q 746 -439 814 -439 q 622 -349 650 -439 q 573 -375 600 -363 q 180 -443 430 -443 q 45 -414 45 -443 q 294 -376 210 -393 q 467 -306 378 -359 q 571 -202 556 -254 q 574 -182 574 -191 q 547 -155 574 -155 q 519 -111 519 -155 q 608 -68 519 -68 q 724 -104 689 -68 q 746 -169 746 -130 q 740 -214 746 -190 q 695 -292 729 -256 m 305 68 q 356 93 339 68 q 373 176 373 117 q 360 216 373 205 q 322 226 348 226 l 305 226 l 305 68 m 305 294 l 322 294 q 411 264 382 294 q 441 176 441 235 q 407 44 441 88 q 305 0 373 0 l 203 0 q 136 88 136 0 l 136 678 q 206 821 136 761 q 312 882 276 882 q 441 791 342 882 q 570 882 540 882 q 676 821 606 882 q 746 678 746 761 l 746 0 l 576 0 l 576 678 q 536 751 576 751 q 441 678 507 751 q 347 751 375 751 q 305 678 305 751 l 305 294 z "},"ឯ":{"ha":882,"x_min":68,"x_max":746,"o":"m 576 733 q 537 805 566 795 q 475 814 509 814 q 370 777 434 814 q 305 699 305 739 l 305 637 q 136 699 136 637 q 153 850 136 806 q 170 943 170 894 q 102 1004 170 1004 q 170 1065 102 1065 q 339 943 339 1065 q 322 847 339 885 q 315 827 318 837 q 321 830 317 828 q 475 882 387 882 q 653 848 576 882 q 746 733 729 814 l 746 0 l 576 0 l 441 131 l 305 0 l 136 0 l 136 353 q 68 423 68 376 q 95 500 68 471 q 170 529 122 529 l 237 529 q 305 471 305 529 l 305 117 l 439 242 l 576 110 l 576 733 z "},"ឰ":{"ha":882,"x_min":136,"x_max":746,"o":"m 471 -185 q 518 -194 498 -194 q 541 -190 531 -194 q 581 -109 557 -182 q 471 -185 526 -151 m 305 68 q 356 93 339 68 q 373 176 373 117 q 360 216 373 205 q 322 226 348 226 l 305 226 l 305 68 m 368 -323 q 385 -260 385 -306 q 384 -232 385 -248 q 229 -293 307 -271 q 309 -347 277 -347 q 368 -323 339 -347 m 746 -22 q 719 -103 732 -54 q 625 -260 684 -230 q 564 -275 596 -275 q 484 -254 526 -275 q 491 -299 491 -278 q 449 -387 491 -349 q 330 -439 389 -439 q 203 -397 270 -439 q 136 -307 136 -353 q 210 -201 136 -218 q 576 -16 408 -141 l 576 678 q 536 751 576 751 q 441 678 507 751 q 347 751 375 751 q 305 678 305 751 l 305 294 l 322 294 q 411 264 382 294 q 441 176 441 235 q 407 44 441 88 q 305 0 373 0 l 203 0 q 136 88 136 0 l 136 678 q 206 821 136 761 q 312 882 276 882 q 441 791 342 882 q 570 882 540 882 q 676 821 606 882 q 746 678 746 761 l 746 -22 z "},"ឱ":{"ha":882,"x_min":102,"x_max":780,"o":"m 209 836 q 102 956 102 892 l 102 1002 q 146 1075 102 1036 l 191 1113 q 345 1172 258 1172 q 405 1166 374 1172 q 780 907 780 1086 q 729 818 780 818 q 678 907 678 818 q 400 1031 678 964 q 319 1034 354 1034 q 216 1018 229 1034 q 203 979 203 1002 q 294 870 203 952 q 407 882 342 882 l 475 882 q 746 676 746 882 l 746 619 q 526 374 746 476 l 341 271 q 305 185 305 252 q 350 126 305 142 q 448 111 394 111 q 536 158 495 111 q 576 248 576 205 l 576 312 l 715 386 l 746 386 l 746 -68 l 576 -68 l 576 64 q 565 58 571 60 q 441 0 515 0 q 237 68 338 0 q 136 185 136 136 q 290 342 136 276 l 484 444 q 576 619 576 485 l 576 676 q 475 808 576 808 l 407 808 q 305 687 311 808 q 353 608 353 663 q 227 529 353 529 q 182 539 203 529 q 148 569 160 550 q 136 608 136 588 l 136 705 l 137 705 q 209 836 145 791 z "},"ឲ":{"ha":882,"x_min":136,"x_max":746,"o":"m 663 361 q 714 327 694 349 q 746 229 746 291 l 746 205 q 475 0 746 0 l 407 0 q 136 205 136 0 l 136 739 q 229 849 153 817 q 441 882 305 882 q 653 849 576 882 q 746 739 729 817 q 695 705 746 705 q 644 725 644 705 q 571 800 634 786 q 441 814 509 814 q 344 793 373 814 q 305 725 315 772 l 305 205 q 407 68 305 68 l 475 68 q 576 205 576 68 l 576 229 q 565 283 576 262 l 473 213 q 448 203 460 203 q 412 224 429 203 q 397 257 397 243 q 412 282 397 271 l 488 339 q 597 449 584 410 q 610 509 610 488 q 598 554 610 540 q 559 568 585 568 q 498 554 519 568 q 475 509 475 539 q 549 473 475 473 q 466 420 509 420 q 399 443 426 420 q 373 509 373 465 q 420 617 373 568 q 559 667 468 667 q 698 618 650 667 q 746 509 746 569 q 726 440 746 476 q 663 361 705 403 z "},"ឳ":{"ha":882,"x_min":102,"x_max":780,"o":"m 218 841 q 102 965 102 899 l 102 1011 q 146 1082 102 1044 l 191 1120 q 345 1179 258 1179 q 405 1173 374 1179 q 516 1144 465 1160 q 746 1287 550 1287 q 780 1223 780 1287 q 746 1158 780 1158 q 623 1114 623 1158 q 624 1105 623 1110 q 780 916 780 1029 q 729 827 780 827 q 680 832 703 827 q 674 833 677 833 q 746 676 746 782 l 746 619 q 526 374 746 476 l 341 271 q 305 185 305 252 q 350 126 305 142 q 448 111 394 111 q 536 158 495 111 q 576 248 576 205 l 576 312 l 715 386 l 746 386 l 746 -68 l 576 -68 l 576 64 q 565 58 571 60 q 441 0 515 0 q 237 68 338 0 q 136 185 136 136 q 290 342 136 276 l 484 444 q 576 619 576 485 l 576 676 q 475 808 576 808 l 407 808 q 305 687 311 808 q 353 608 353 663 q 227 529 353 529 q 182 539 203 529 q 148 569 160 550 q 136 608 136 588 l 136 705 l 137 705 q 218 841 145 797 m 579 872 q 510 995 519 915 q 348 1029 462 1029 q 218 1016 233 1029 q 203 980 203 1003 q 302 872 203 959 q 407 882 348 882 l 475 882 q 579 872 533 882 z "},"ា":{"ha":441,"x_min":-200,"x_max":305,"o":"m 136 629 q 98 683 136 659 l 26 725 q -79 759 -30 759 q -184 722 -118 759 q -200 793 -200 775 q -163 844 -200 821 q -39 882 -100 882 q 102 840 32 882 l 201 781 q 305 629 305 719 l 305 0 l 136 0 l 136 629 z "},"ិ":{"ha":0,"x_min":-736,"x_max":-146,"o":"m -736 1187 q -519 1322 -736 1322 q -264 1221 -383 1322 l -176 1145 q -146 1085 -146 1119 q -193 1051 -146 1051 l -566 1051 q -736 1187 -736 1051 m -627 1187 q -566 1153 -627 1153 l -329 1153 q -519 1221 -403 1221 q -627 1187 -627 1221 z "},"ី":{"ha":0,"x_min":-736,"x_max":-146,"o":"m -566 1153 l -329 1153 q -519 1221 -403 1221 q -627 1187 -627 1221 q -566 1153 -627 1153 m -261 1218 l -261 1322 l -146 1322 l -146 1085 q -193 1051 -146 1051 l -566 1051 q -736 1187 -736 1051 q -519 1322 -736 1322 q -264 1221 -383 1322 l -261 1218 z "},"ឹ":{"ha":0,"x_min":-736,"x_max":-146,"o":"m -566 1153 l -329 1153 q -519 1221 -403 1221 q -627 1187 -627 1221 q -566 1153 -627 1153 m -375 1292 q -353 1326 -368 1312 q -264 1356 -323 1356 q -175 1326 -205 1356 q -146 1238 -146 1297 q -175 1149 -146 1178 q -177 1147 -176 1147 l -176 1145 q -146 1085 -146 1119 q -193 1051 -146 1051 l -566 1051 q -736 1187 -736 1051 q -519 1322 -736 1322 q -375 1292 -444 1322 m -290 1247 q -281 1221 -290 1230 q -256 1213 -272 1213 q -230 1221 -238 1213 q -222 1247 -222 1230 q -230 1272 -222 1264 q -256 1281 -238 1281 q -281 1272 -272 1281 q -290 1247 -290 1264 z "},"ឺ":{"ha":0,"x_min":-736,"x_max":-146,"o":"m -566 1153 l -329 1153 q -519 1221 -403 1221 q -627 1187 -627 1221 q -566 1153 -627 1153 m -248 1206 l -248 1322 l -146 1322 l -146 1085 q -193 1051 -146 1051 l -566 1051 q -736 1187 -736 1051 q -519 1322 -736 1322 q -410 1305 -463 1322 l -410 1356 l -309 1356 l -309 1255 q -264 1221 -286 1239 l -248 1206 z "},"ុ":{"ha":0,"x_min":-326,"x_max":-136,"o":"m -190 -68 q -136 -136 -136 -68 l -136 -407 q -203 -441 -136 -441 q -271 -407 -271 -441 l -271 -203 q -326 -136 -326 -203 q -244 -68 -326 -68 l -190 -68 z "},"ូ":{"ha":0,"x_min":-532,"x_max":-90,"o":"m -339 -441 q -494 -396 -463 -441 q -515 -333 -515 -365 q -511 -306 -515 -319 l -477 -203 q -532 -136 -532 -203 q -416 -68 -532 -68 q -333 -153 -333 -68 q -347 -237 -333 -188 l -361 -291 q -366 -313 -366 -303 q -339 -339 -366 -339 q -234 -203 -290 -339 q -141 -68 -178 -68 q -90 -115 -90 -68 q -136 -307 -90 -174 q -339 -441 -182 -441 z "},"ួ":{"ha":0,"x_min":-576,"x_max":-70,"o":"m -340 -368 q -484 -441 -419 -441 q -576 -353 -576 -441 q -501 -203 -576 -301 q -487 -172 -487 -186 q -515 -136 -487 -149 q -416 -68 -515 -68 q -339 -113 -339 -68 q -394 -234 -339 -159 q -449 -332 -449 -309 q -443 -339 -449 -339 q -305 -229 -421 -339 q -233 -339 -250 -339 q -186 -210 -210 -339 q -110 -68 -170 -68 q -70 -134 -70 -68 q -81 -270 -70 -201 q -233 -441 -106 -441 q -340 -368 -289 -441 z "},"ើ":{"ha":0,"x_min":-736,"x_max":-146,"o":"m -566 1153 l -329 1153 q -519 1221 -403 1221 q -627 1187 -627 1221 q -566 1153 -627 1153 m -261 1218 l -261 1322 l -146 1322 l -146 1085 q -193 1051 -146 1051 l -566 1051 q -736 1187 -736 1051 q -519 1322 -736 1322 q -264 1221 -383 1322 l -261 1218 z "},"ឿ":{"ha":441,"x_min":-404,"x_max":305,"o":"m 3 1153 q -186 1221 -71 1221 q -295 1187 -295 1221 q -234 1153 -295 1153 l 3 1153 m 305 -271 q 0 -441 305 -441 q -305 -271 -305 -441 l -305 -102 l -136 -102 l -136 -271 q 0 -373 -136 -373 q 136 -271 136 -373 l 136 943 q 11 1051 136 1051 l -234 1051 q -404 1187 -404 1051 q -186 1322 -404 1322 q -78 1305 -131 1322 l -78 1356 l 24 1356 l 24 1255 q 68 1221 46 1239 l 85 1206 l 85 1322 l 186 1322 l 186 1125 q 305 943 305 1076 l 305 -271 z "},"ៀ":{"ha":441,"x_min":-305,"x_max":305,"o":"m 305 -271 q 0 -441 305 -441 q -305 -271 -305 -441 l -305 -102 l -136 -102 l -136 -271 q 0 -373 -136 -373 q 136 -271 136 -373 l 136 929 q 11 1051 136 1051 l -136 1051 q -271 1167 -271 1051 q -264 1213 -271 1190 q -258 1272 -258 1236 q -285 1306 -258 1293 q -213 1356 -285 1356 q -88 1272 -88 1356 q -95 1211 -88 1229 q -102 1167 -102 1192 q -34 1119 -102 1119 l 11 1119 q 305 929 305 1119 l 305 -271 z "},"េ":{"ha":441,"x_min":46,"x_max":407,"o":"m 271 168 q 305 97 271 97 q 339 147 339 97 q 305 212 339 212 q 271 168 271 212 m 305 293 q 407 147 407 284 q 267 0 407 0 q 136 168 136 0 l 136 554 q 46 635 136 616 q 109 788 58 694 q 192 882 159 882 q 260 857 218 882 l 301 831 q 345 820 320 820 q 373 823 358 820 q 345 736 367 782 q 293 686 322 690 l 286 686 q 212 710 257 686 q 172 722 187 722 q 142 703 151 722 l 127 669 q 305 588 305 635 l 305 293 z "},"ែ":{"ha":441,"x_min":34,"x_max":407,"o":"m 183 1076 q 146 1061 146 1076 q 183 1045 146 1045 q 243 1064 215 1045 q 271 1116 271 1083 q 251 1173 271 1149 q 200 1206 231 1196 q 170 1242 170 1217 q 231 1289 170 1289 q 357 1244 307 1289 q 407 1116 407 1199 q 358 1000 407 1051 q 183 949 309 949 q 81 968 127 949 q 34 1061 34 987 q 53 1118 34 1099 q 109 1137 71 1137 q 164 1122 146 1137 q 183 1076 183 1107 m 271 168 q 305 97 271 97 q 339 147 339 97 q 305 212 339 212 q 271 168 271 212 m 305 293 q 407 147 407 284 q 267 0 407 0 q 136 168 136 0 l 136 554 q 46 635 136 616 q 109 788 58 694 q 192 882 159 882 q 260 857 218 882 l 301 831 q 345 820 320 820 q 373 823 358 820 q 345 736 367 782 q 293 686 322 690 l 286 686 q 212 710 257 686 q 172 722 187 722 q 142 703 151 722 l 127 669 q 305 588 305 635 l 305 293 z "},"ៃ":{"ha":441,"x_min":0,"x_max":407,"o":"m 119 1120 q 170 1077 170 1120 q 197 1046 170 1046 q 234 1061 217 1046 q 251 1107 251 1077 q 234 1146 251 1131 q 197 1162 217 1162 l 170 1162 q 68 1244 68 1162 q 0 1294 68 1294 q 88 1356 0 1356 q 165 1329 141 1356 q 190 1244 190 1301 l 203 1244 q 335 1213 297 1244 q 373 1107 373 1182 q 335 991 373 1032 q 197 949 297 949 q 68 1070 68 949 q 119 1120 68 1120 m 271 168 q 305 97 271 97 q 339 147 339 97 q 305 212 339 212 q 271 168 271 212 m 305 293 q 407 147 407 284 q 267 0 407 0 q 136 168 136 0 l 136 554 q 46 635 136 616 q 109 788 58 694 q 192 882 159 882 q 260 857 218 882 l 301 831 q 345 820 320 820 q 373 823 358 820 q 345 736 367 782 q 293 686 322 690 l 286 686 q 212 710 257 686 q 172 722 187 722 q 142 703 151 722 l 127 669 q 305 588 305 635 l 305 293 z "},"ោ":{"ha":441,"x_min":-200,"x_max":305,"o":"m 136 629 q 98 683 136 659 l 26 725 q -79 759 -30 759 q -184 722 -118 759 q -200 793 -200 775 q -163 844 -200 821 q -39 882 -100 882 q 102 840 32 882 l 201 781 q 305 629 305 719 l 305 0 l 136 0 l 136 629 z "},"ៅ":{"ha":441,"x_min":-200,"x_max":339,"o":"m 170 800 l 170 1000 q 102 1058 170 1058 q 186 1117 102 1117 l 263 1117 q 339 1000 339 1117 l 339 823 q 288 699 339 775 q 305 629 305 667 l 305 0 l 136 0 l 136 629 q 98 683 136 659 l 26 725 q -79 759 -30 759 q -184 722 -118 759 q -200 793 -200 775 q -163 844 -200 821 q -39 882 -100 882 q 102 840 32 882 l 170 800 z "},"ំ":{"ha":0,"x_min":-610,"x_max":-271,"o":"m -441 1221 q -463 1214 -452 1221 q -479 1196 -473 1208 q -485 1170 -485 1183 q -479 1145 -485 1157 q -463 1126 -473 1133 q -441 1119 -452 1119 q -418 1126 -429 1119 q -402 1145 -408 1133 q -397 1170 -397 1157 q -402 1196 -397 1183 q -419 1214 -408 1208 q -441 1221 -429 1221 m -441 1322 q -357 1303 -398 1322 q -294 1246 -317 1283 q -271 1170 -271 1210 q -294 1094 -271 1131 q -356 1037 -316 1057 q -441 1017 -396 1017 q -525 1037 -484 1017 q -588 1094 -565 1057 q -610 1170 -610 1131 q -587 1246 -610 1210 q -524 1303 -564 1283 q -441 1322 -484 1322 z "},"ះ":{"ha":610,"x_min":136,"x_max":475,"o":"m 305 203 q 283 197 294 203 q 267 178 273 191 q 261 153 261 166 q 267 127 261 140 q 283 109 273 115 q 305 102 294 102 q 328 109 317 102 q 344 127 338 115 q 349 153 349 140 q 343 178 349 166 q 327 197 338 191 q 305 203 317 203 m 305 305 q 389 286 348 305 q 452 229 429 266 q 475 153 475 193 q 452 77 475 113 q 390 20 430 40 q 305 0 350 0 q 221 20 262 0 q 158 77 181 40 q 136 153 136 113 q 159 229 136 193 q 222 286 182 266 q 305 305 262 305 m 305 746 q 283 740 294 746 q 267 721 273 733 q 261 695 261 709 q 267 670 261 682 q 283 651 273 658 q 305 644 294 644 q 328 651 317 644 q 344 670 338 658 q 349 695 349 682 q 343 721 349 709 q 327 740 338 733 q 305 746 317 746 m 305 848 q 389 828 348 848 q 452 772 429 808 q 475 695 475 735 q 452 619 475 656 q 390 563 430 583 q 305 543 350 543 q 221 563 262 543 q 158 619 181 583 q 136 695 136 656 q 159 772 136 735 q 222 828 182 808 q 305 848 262 848 z "},"ៈ":{"ha":475,"x_min":136,"x_max":339,"o":"m 237 203 q 287 190 263 203 q 325 153 311 177 q 339 102 339 128 q 326 51 339 75 q 288 14 312 27 q 237 0 264 0 q 187 14 212 0 q 149 51 163 27 q 136 102 136 75 q 149 153 136 128 q 187 190 163 177 q 237 203 212 203 m 237 848 q 287 834 263 848 q 325 797 311 821 q 339 746 339 772 q 326 695 339 720 q 288 658 312 671 q 237 644 264 644 q 187 658 212 644 q 149 695 163 671 q 136 746 136 720 q 149 797 136 772 q 187 834 163 821 q 237 848 212 848 z "},"៉":{"ha":0,"x_min":-602,"x_max":-279,"o":"m -500 1289 l -500 1085 q -550 1017 -500 1031 q -602 1085 -602 1031 l -602 1289 l -500 1289 m -279 1289 l -279 1085 q -330 1017 -279 1031 q -381 1085 -381 1031 l -381 1289 l -279 1289 z "},"៊":{"ha":0,"x_min":-831,"x_max":-51,"o":"m -750 977 q -831 1048 -831 1006 q -787 1107 -831 1076 l -742 1140 q -631 1206 -653 1206 q -533 1155 -608 1206 l -495 1133 q -458 1118 -477 1118 q -423 1133 -441 1118 l -389 1155 q -296 1206 -321 1206 q -234 1177 -273 1206 l -157 1124 q -101 1107 -134 1107 q -51 1116 -79 1107 q -163 1008 -119 1008 q -232 1029 -208 1008 l -281 1055 q -336 1077 -307 1077 q -411 1042 -365 1077 q -485 1008 -458 1008 q -558 1026 -530 1008 l -613 1059 q -670 1077 -641 1077 q -711 1069 -692 1077 q -729 1042 -729 1062 q -679 1002 -729 1025 l -750 977 z "},"់":{"ha":0,"x_min":-509,"x_max":-373,"o":"m -373 1322 l -373 1085 q -441 1017 -373 1031 q -509 1085 -509 1031 l -509 1322 l -373 1322 z "},"៌":{"ha":0,"x_min":-674,"x_max":-187,"o":"m -563 979 q -630 949 -604 949 q -665 964 -652 949 q -674 985 -674 975 q -631 1067 -674 1042 l -601 1082 q -466 1200 -505 1122 q -428 1301 -428 1277 q -343 1356 -428 1356 q -293 1301 -293 1356 q -336 1198 -294 1261 q -397 1108 -357 1156 q -344 1111 -361 1111 q -283 1100 -325 1111 q -201 1044 -242 1089 q -187 1010 -187 1025 q -233 957 -208 968 q -261 949 -248 949 q -307 977 -287 949 q -383 1024 -337 1019 q -432 1026 -411 1026 q -492 1019 -473 1026 q -563 979 -522 1008 z "},"៍":{"ha":0,"x_min":-682,"x_max":-174,"o":"m -546 1137 q -505 1106 -546 1106 q -424 1119 -471 1106 q -376 1098 -376 1119 q -406 1038 -376 1058 q -502 1017 -436 1017 q -638 1047 -595 1017 q -682 1149 -682 1077 q -644 1255 -682 1208 q -498 1302 -607 1302 q -366 1249 -412 1302 q -315 1285 -335 1265 q -267 1356 -295 1304 q -179 1329 -192 1356 q -174 1308 -174 1318 q -185 1278 -174 1292 q -245 1219 -205 1253 q -338 1160 -287 1185 q -385 1153 -362 1153 q -478 1200 -435 1200 q -527 1188 -509 1200 q -546 1137 -546 1175 z "},"៎":{"ha":0,"x_min":-597,"x_max":-285,"o":"m -495 1118 l -597 1118 l -597 1227 l -495 1227 l -495 1329 l -387 1329 l -387 1227 l -285 1227 l -285 1118 l -387 1118 l -387 1017 l -495 1017 l -495 1118 z "},"៏":{"ha":0,"x_min":-671,"x_max":-210,"o":"m -326 1356 q -224 1314 -224 1356 q -292 1270 -224 1270 q -347 1213 -336 1270 l -351 1184 l -427 1184 q -549 1098 -549 1184 q -522 1075 -549 1075 q -441 1119 -495 1075 q -359 1075 -387 1075 q -332 1093 -332 1075 l -346 1112 q -278 1156 -346 1156 q -210 1069 -210 1156 q -349 983 -210 983 q -441 1021 -393 983 q -526 983 -488 983 q -671 1098 -671 983 q -427 1276 -671 1276 q -326 1356 -412 1356 z "},"័":{"ha":0,"x_min":-475,"x_max":0,"o":"m -339 1260 q -251 1187 -251 1260 q -302 1133 -251 1133 q -353 1161 -346 1133 q -285 1104 -353 1104 q -178 1135 -220 1104 q -136 1225 -136 1165 q -170 1284 -136 1274 q -203 1326 -203 1295 q -170 1356 -203 1356 q -42 1322 -85 1356 q 0 1225 0 1289 q -76 1084 0 1136 q -285 1033 -153 1033 q -432 1068 -390 1033 q -475 1161 -475 1103 q -339 1260 -475 1260 z "},"៑":{"ha":0,"x_min":-695,"x_max":-186,"o":"m -186 1221 l -186 1153 l -695 1153 l -695 1221 l -186 1221 z "},"្":{"ha":0,"x_min":-576,"x_max":-305,"o":"m -305 -305 l -407 -305 l -407 -407 l -475 -407 l -475 -305 l -576 -305 l -576 -237 l -475 -237 l -475 -136 l -407 -136 l -407 -237 l -305 -237 l -305 -305 z "},"៓":{"ha":0,"x_min":-610,"x_max":-271,"o":"m -543 1187 q -517 1136 -543 1153 q -441 1119 -492 1119 q -364 1136 -390 1119 q -339 1187 -339 1153 q -364 1238 -339 1221 q -441 1255 -390 1255 q -517 1238 -492 1255 q -543 1187 -543 1221 m -271 1187 q -314 1085 -271 1119 q -441 1051 -356 1051 q -568 1085 -526 1051 q -610 1187 -610 1119 q -568 1289 -610 1255 q -441 1322 -526 1322 q -314 1289 -356 1322 q -271 1187 -271 1255 z "},"។":{"ha":916,"x_min":136,"x_max":780,"o":"m 610 818 l 610 882 l 780 882 l 780 121 q 714 26 780 52 q 583 0 648 0 q 528 15 546 0 q 509 60 509 29 q 581 71 551 60 q 610 121 610 81 l 610 670 q 373 541 483 541 q 136 701 136 541 q 359 882 136 882 q 407 831 407 882 q 359 780 407 780 q 305 701 305 780 q 373 644 305 644 q 610 818 487 644 z "},"៕":{"ha":1153,"x_min":136,"x_max":1017,"o":"m 882 882 l 1017 882 l 1017 88 q 958 22 1017 44 q 814 0 899 0 q 865 37 848 15 q 882 88 882 59 l 882 882 m 610 818 l 610 882 l 780 882 l 780 121 q 714 26 780 52 q 583 0 648 0 q 528 15 546 0 q 509 60 509 29 q 581 71 551 60 q 610 121 610 81 l 610 670 q 373 541 483 541 q 136 701 136 541 q 359 882 136 882 q 407 831 407 882 q 359 780 407 780 q 305 701 305 780 q 373 644 305 644 q 610 818 487 644 z "},"៖":{"ha":610,"x_min":34,"x_max":576,"o":"m 34 373 l 34 475 l 576 475 l 576 373 l 34 373 m 305 203 q 283 197 294 203 q 267 178 273 191 q 261 153 261 166 q 267 127 261 140 q 283 109 273 115 q 305 102 294 102 q 328 109 317 102 q 344 127 338 115 q 349 153 349 140 q 343 178 349 166 q 327 197 338 191 q 305 203 317 203 m 305 305 q 389 286 348 305 q 452 229 429 266 q 475 153 475 193 q 452 77 475 113 q 390 20 430 40 q 305 0 350 0 q 221 20 262 0 q 158 77 181 40 q 136 153 136 113 q 159 229 136 193 q 222 286 182 266 q 305 305 262 305 m 305 746 q 283 740 294 746 q 267 721 273 733 q 261 695 261 709 q 267 670 261 682 q 283 651 273 658 q 305 644 294 644 q 328 651 317 644 q 344 670 338 658 q 349 695 349 682 q 343 721 349 709 q 327 740 338 733 q 305 746 317 746 m 305 848 q 389 828 348 848 q 452 772 429 808 q 475 695 475 735 q 452 619 475 656 q 390 563 430 583 q 305 543 350 543 q 221 563 262 543 q 158 619 181 583 q 136 695 136 656 q 159 772 136 735 q 222 828 182 808 q 305 848 262 848 z "},"ៗ":{"ha":1017,"x_min":136,"x_max":882,"o":"m 331 535 q 172 580 209 535 q 136 711 136 625 q 203 795 157 753 q 354 882 256 839 l 532 758 l 728 881 l 882 881 l 882 205 q 777 52 882 103 q 532 0 673 0 q 321 26 391 0 q 250 103 250 51 q 270 154 250 137 q 331 171 290 171 q 532 102 331 102 q 712 205 712 102 l 712 753 l 533 651 l 381 753 l 288 677 q 299 651 288 659 q 331 642 309 642 q 361 650 351 642 q 371 671 371 656 q 401 659 391 671 q 411 604 411 646 q 391 547 411 560 q 331 535 371 535 z "},"៘":{"ha":3153,"x_min":136,"x_max":3018,"o":"m 610 818 l 610 882 l 780 882 l 780 121 q 714 26 780 52 q 583 0 648 0 q 528 15 546 0 q 509 60 509 29 q 581 71 551 60 q 610 121 610 81 l 610 670 q 373 541 483 541 q 136 701 136 541 q 359 882 136 882 q 407 831 407 882 q 359 780 407 780 q 305 701 305 780 q 373 644 305 644 q 610 818 487 644 m 1221 68 q 1272 93 1255 68 q 1289 176 1289 117 q 1276 216 1289 205 q 1238 226 1263 226 l 1221 226 l 1221 68 m 2102 205 q 1831 0 2102 0 l 1763 0 q 1492 205 1492 0 l 1492 676 q 1390 780 1492 780 l 1322 780 q 1221 676 1221 780 l 1221 294 l 1238 294 q 1326 264 1297 294 q 1356 176 1356 235 q 1322 44 1356 88 q 1221 0 1289 0 l 1119 0 q 1051 88 1051 0 l 1051 676 q 1322 882 1051 882 l 1390 882 q 1662 676 1662 882 l 1662 205 q 1763 102 1662 102 l 1831 102 q 1933 205 1933 102 l 1933 604 l 1865 639 l 1865 735 l 1921 808 q 1996 882 1976 882 q 2038 860 2009 882 l 2100 822 q 2138 808 2124 808 q 2170 814 2151 808 q 2094 703 2151 714 q 2075 702 2084 702 q 2026 712 2050 702 l 1978 732 l 1959 707 q 1952 693 1952 700 q 1962 678 1952 685 l 2078 625 q 2102 583 2102 613 l 2102 205 m 2848 818 l 2848 882 l 3018 882 l 3018 121 q 2952 26 3018 52 q 2821 0 2886 0 q 2766 15 2784 0 q 2747 60 2747 29 q 2819 71 2789 60 q 2848 121 2848 81 l 2848 670 q 2611 541 2721 541 q 2374 701 2374 541 q 2597 882 2374 882 q 2645 831 2645 882 q 2597 780 2645 780 q 2543 701 2543 780 q 2611 644 2543 644 q 2848 818 2725 644 z "},"៙":{"ha":1153,"x_min":136,"x_max":1017,"o":"m 576 0 q 246 111 357 0 q 136 441 136 220 q 246 772 136 661 q 576 882 357 882 q 907 772 796 882 q 1017 441 1017 661 q 907 111 1017 220 q 576 0 796 0 m 576 787 q 230 441 230 787 q 576 94 230 94 q 923 441 923 94 q 576 787 923 787 m 576 189 q 387 252 450 189 q 325 441 325 315 q 387 630 325 567 q 576 692 450 692 q 766 630 703 692 q 828 441 828 567 q 766 252 828 315 q 576 189 703 189 m 576 598 q 458 559 498 598 q 419 441 419 519 q 458 323 419 362 q 576 283 498 283 q 694 323 654 283 q 734 441 734 362 q 694 559 734 519 q 576 598 654 598 z "},"៚":{"ha":2611,"x_min":305,"x_max":2441,"o":"m 2117 316 q 2106 301 2106 307 q 2106 298 2106 299 q 2115 293 2110 293 q 2123 297 2119 293 q 2124 299 2124 298 q 2117 316 2124 303 m 1216 575 q 1257 653 1257 631 q 1253 665 1257 661 q 1221 679 1236 679 q 1184 659 1202 679 q 1179 645 1179 653 q 1208 586 1179 624 q 1216 575 1211 581 m 1404 258 q 1375 210 1375 225 q 1377 204 1375 206 q 1405 191 1390 191 q 1430 200 1417 191 q 1434 208 1434 202 q 1404 258 1434 222 m 1635 598 q 1662 639 1662 628 q 1661 643 1662 642 q 1638 654 1651 654 q 1618 648 1629 654 q 1615 640 1615 646 q 1635 598 1615 628 m 1789 275 q 1775 258 1775 262 l 1775 257 q 1786 252 1780 252 q 1797 255 1792 252 q 1799 258 1799 256 q 1789 275 1799 262 m 2022 575 q 2039 593 2039 590 q 2039 594 2039 594 q 2031 597 2035 597 q 2018 592 2025 597 q 2017 589 2017 591 q 2022 575 2017 584 m 2140 434 q 2199 452 2168 444 q 2377 470 2277 470 q 2441 426 2441 470 q 2374 382 2441 382 l 2293 382 q 2190 363 2235 382 q 2209 318 2203 338 q 2214 287 2214 301 q 2182 229 2214 250 q 2109 204 2144 204 q 2098 205 2104 204 q 2024 246 2058 209 q 1997 304 1997 275 q 1999 321 1997 313 q 2060 392 2009 357 q 2038 419 2049 405 q 2016 444 2026 432 q 1946 393 1984 420 q 1856 328 1893 355 q 1878 287 1870 307 q 1889 239 1889 260 q 1860 186 1889 205 q 1786 161 1821 161 q 1773 161 1780 161 q 1697 206 1732 167 q 1681 247 1681 224 q 1705 311 1681 275 q 1733 345 1716 327 q 1674 412 1708 374 l 1628 462 q 1552 392 1594 429 q 1464 317 1501 350 q 1510 247 1494 279 q 1525 190 1525 214 q 1494 134 1525 155 q 1401 102 1445 102 q 1392 102 1396 102 q 1301 149 1344 106 q 1280 201 1280 171 q 1302 269 1280 231 q 1341 326 1317 296 q 1274 389 1312 354 q 1225 436 1248 413 q 1116 314 1179 380 q 833 79 965 157 q 587 0 700 0 q 376 110 446 0 q 305 441 305 220 q 386 771 305 661 q 627 882 467 882 q 869 823 789 882 q 949 649 949 765 q 891 457 949 530 q 715 359 832 385 q 689 355 701 355 q 644 387 654 355 q 642 402 642 395 q 688 443 642 432 q 808 511 768 460 q 848 645 848 562 q 793 756 848 719 q 627 793 737 793 q 463 705 517 793 q 408 445 408 618 l 408 441 q 452 176 408 264 q 587 88 497 88 q 787 157 677 88 q 1027 361 897 224 q 1161 507 1109 446 q 1107 591 1124 553 q 1090 658 1090 627 q 1118 725 1090 696 q 1219 775 1168 774 l 1220 775 q 1318 726 1269 775 q 1343 664 1343 702 q 1318 574 1343 626 q 1278 507 1302 543 q 1342 446 1306 478 q 1400 389 1374 416 q 1476 457 1434 421 q 1569 536 1531 502 q 1533 610 1548 571 q 1522 661 1522 638 q 1555 722 1522 700 q 1641 751 1601 751 l 1652 751 q 1736 703 1697 747 q 1754 657 1754 684 q 1729 583 1754 625 q 1691 530 1714 558 q 1746 469 1714 503 q 1799 408 1775 437 q 1870 463 1830 434 q 1955 524 1921 498 q 1932 572 1940 550 q 1926 607 1926 591 q 1957 663 1926 642 q 2030 687 1995 687 q 2043 686 2037 687 q 2120 642 2083 682 q 2136 602 2136 625 q 2112 541 2136 575 q 2080 502 2100 522 q 2112 467 2094 486 q 2140 434 2127 450 z "},"៛":{"ha":441,"x_min":68,"x_max":373,"o":"m 153 212 q 136 147 136 212 q 153 97 136 97 q 170 168 170 97 q 153 212 170 212 m 305 492 l 373 492 l 373 390 l 305 390 l 305 168 q 190 0 305 0 q 68 147 68 0 q 136 289 68 267 l 136 390 l 68 390 l 68 492 l 136 492 l 136 604 l 68 639 l 68 735 l 123 808 q 199 882 178 882 q 241 860 212 882 l 302 822 q 340 808 327 808 q 373 814 354 808 q 296 703 354 714 q 278 702 287 702 q 229 712 253 702 l 180 732 l 161 707 q 155 693 155 700 q 165 678 155 685 l 281 625 q 305 583 305 613 l 305 492 z "},"០":{"ha":983,"x_min":136,"x_max":848,"o":"m 678 529 q 632 721 678 661 q 492 780 585 780 q 352 721 399 780 q 305 529 305 661 l 305 353 q 352 161 305 220 q 492 102 399 102 q 632 161 585 102 q 678 353 678 220 l 678 529 m 848 353 q 759 88 848 176 q 492 0 670 0 q 224 88 314 0 q 136 353 136 176 l 136 529 q 224 793 136 705 q 492 882 314 882 q 759 793 670 882 q 848 529 848 705 l 848 353 z "},"១":{"ha":1085,"x_min":136,"x_max":949,"o":"m 949 529 q 812 137 949 273 q 407 0 673 0 l 407 86 q 685 198 590 86 q 780 529 780 310 q 696 735 780 690 q 528 780 612 780 q 374 738 442 780 q 305 588 305 695 q 327 468 305 496 q 391 435 349 439 q 432 433 412 433 q 473 435 452 433 q 538 452 513 439 q 564 490 564 465 l 564 496 q 534 492 547 492 q 481 523 497 492 q 471 560 471 543 q 534 627 471 602 q 587 638 563 638 q 659 592 634 638 q 681 510 681 549 q 669 457 681 483 q 596 365 642 395 q 492 326 551 334 q 443 323 469 323 q 347 332 400 323 q 199 408 261 345 q 136 588 136 472 q 235 801 136 720 q 528 882 336 882 q 835 798 720 882 q 949 529 949 714 z "},"២":{"ha":1153,"x_min":34,"x_max":1017,"o":"m 136 895 q 34 974 136 974 q 122 1065 34 1065 q 305 895 305 1065 l 305 235 q 381 131 305 160 q 576 102 457 102 q 772 131 696 102 q 848 235 848 160 l 848 705 q 822 749 848 743 q 817 749 820 749 q 713 642 793 749 q 609 749 633 749 q 604 749 606 749 q 576 705 576 743 l 576 456 q 623 437 598 456 q 648 382 648 418 q 576 294 648 294 l 492 294 q 407 353 407 294 l 407 705 q 481 829 407 777 q 609 882 555 882 q 713 803 629 882 q 816 882 796 882 q 943 829 870 882 q 1017 705 1017 777 l 1017 235 q 888 51 1017 101 q 576 0 760 0 q 264 51 393 0 q 136 235 136 101 l 136 895 z "},"៣":{"ha":1255,"x_min":136,"x_max":1119,"o":"m 305 186 q 352 165 327 186 q 377 102 377 144 q 305 0 377 0 l 220 0 q 136 68 136 0 l 136 676 q 424 882 136 882 q 627 819 564 882 q 831 882 690 882 q 1119 676 1119 882 l 1119 0 l 949 0 l 949 676 q 831 769 949 769 q 712 676 712 769 l 712 0 l 543 0 l 543 676 q 424 769 543 769 q 305 676 305 769 l 305 186 z "},"៤":{"ha":983,"x_min":136,"x_max":882,"o":"m 136 479 q 383 745 136 679 l 575 799 q 712 916 712 839 q 652 958 712 958 q 768 1017 652 1017 q 882 916 882 1017 q 616 686 882 770 l 410 629 q 305 479 305 594 l 305 214 q 337 144 305 179 q 441 110 369 110 l 693 110 q 590 269 590 222 l 590 419 q 675 538 590 538 l 760 538 q 824 524 793 538 q 868 483 855 509 q 882 422 882 456 q 858 359 882 389 q 760 329 834 329 l 760 269 q 821 142 760 209 l 882 75 l 882 0 l 441 0 q 220 51 305 0 q 136 214 136 102 l 136 479 z "},"៥":{"ha":1017,"x_min":136,"x_max":949,"o":"m 422 725 q 445 765 445 745 q 399 797 445 797 q 366 765 366 797 q 422 725 366 739 m 519 710 l 621 694 q 642 693 633 693 q 712 778 712 693 l 712 916 q 882 1017 712 1017 q 949 958 949 1017 q 882 916 882 958 l 882 778 q 695 564 882 564 l 433 604 q 387 579 412 591 q 305 425 305 554 l 305 214 q 337 140 305 179 q 441 102 369 102 l 707 102 q 597 239 597 192 l 597 359 q 743 479 597 479 q 824 464 793 479 q 868 423 855 450 q 882 362 882 396 q 858 299 882 329 q 766 269 834 269 l 766 239 q 882 75 766 179 l 882 0 l 441 0 q 220 51 305 0 q 136 214 136 102 l 136 425 q 309 648 136 593 q 248 765 248 681 q 399 898 248 898 q 536 765 536 898 q 519 710 536 736 z "},"៦":{"ha":1017,"x_min":34,"x_max":882,"o":"m 415 393 q 384 396 399 396 q 331 365 357 396 q 305 276 305 334 q 347 147 305 192 q 492 102 388 102 q 663 175 614 102 q 712 406 712 248 l 712 470 q 660 714 712 649 q 523 780 608 780 q 305 647 381 780 q 220 588 305 588 q 136 647 136 588 l 136 882 q 34 950 136 950 q 156 1029 34 1029 q 305 882 305 1029 l 305 802 q 523 882 419 882 q 770 787 658 882 q 882 470 882 692 l 882 406 q 773 85 882 170 q 492 0 665 0 q 216 83 297 0 q 136 276 136 168 q 209 437 136 366 q 382 509 282 509 q 422 507 402 509 q 556 440 521 494 q 592 340 592 387 q 574 271 592 307 q 506 233 556 233 q 472 241 490 233 q 428 288 428 256 q 436 317 428 302 q 476 353 450 347 q 415 393 469 382 z "},"៧":{"ha":1255,"x_min":136,"x_max":1119,"o":"m 305 157 q 343 229 343 183 q 325 263 343 252 q 305 274 313 274 l 305 157 m 949 909 q 848 987 949 987 q 936 1078 848 1078 q 1119 909 1119 1078 l 1119 138 q 899 0 1119 0 q 678 138 678 0 l 678 671 q 649 746 678 709 q 618 754 635 754 q 492 659 564 754 q 366 754 420 754 q 335 746 349 754 q 305 671 305 709 l 305 353 q 405 318 375 353 q 434 244 434 283 q 407 147 434 198 q 342 47 380 95 q 240 0 305 0 q 136 59 136 0 l 136 671 q 214 829 136 777 q 370 882 293 882 q 492 803 405 882 q 615 882 579 882 q 769 829 691 882 q 848 671 848 777 l 848 138 q 899 102 848 102 q 949 138 949 102 l 949 909 z "},"៨":{"ha":1051,"x_min":136,"x_max":1017,"o":"m 746 264 q 690 294 713 264 q 666 355 666 323 q 679 415 666 389 q 706 456 692 441 q 757 470 720 470 q 916 353 916 470 l 916 176 q 685 0 916 0 q 526 75 574 0 q 366 0 477 0 q 136 176 136 0 l 136 588 q 233 798 136 714 q 515 882 330 882 q 746 802 632 882 l 746 882 q 929 1029 746 1029 q 1017 950 1017 1029 q 916 882 916 950 l 916 676 q 818 617 916 617 q 741 647 755 617 q 515 780 656 780 q 367 735 428 780 q 305 588 305 690 l 305 176 q 366 102 305 102 q 434 131 405 102 q 463 197 463 160 q 526 235 463 235 q 588 197 588 235 q 617 131 588 160 q 685 102 647 102 q 746 176 746 102 l 746 264 z "},"៩":{"ha":983,"x_min":136,"x_max":848,"o":"m 621 125 q 597 193 597 166 q 603 216 597 206 q 654 257 619 245 q 717 269 686 269 l 723 269 q 785 248 755 267 q 814 167 814 228 q 715 42 814 85 q 475 0 615 0 q 227 61 307 0 q 136 271 136 130 q 186 430 136 364 q 338 527 237 496 q 271 676 271 578 q 341 837 271 786 q 528 882 401 882 q 678 829 632 882 l 678 882 q 618 950 678 950 q 707 1029 618 1029 q 848 882 848 1029 l 848 705 q 784 647 848 647 q 680 676 694 647 q 528 760 636 760 q 462 736 483 760 q 441 665 441 713 q 464 593 441 617 q 563 568 488 568 q 810 488 694 568 q 848 393 848 459 q 830 359 848 369 q 821 357 826 357 q 770 385 803 357 q 563 450 692 450 q 359 402 413 450 q 305 271 305 354 q 338 154 305 206 q 475 102 370 102 q 621 125 547 102 z "},"​":{"ha":7,"x_min":0,"x_max":0,"o":""},"‌":{"ha":1023,"x_min":0,"x_max":0,"o":""},"◌":{"ha":648,"x_min":54,"x_max":673,"o":"m 631 454 l 570 412 q 529 465 544 457 l 528 465 q 494 487 507 480 l 536 544 q 600 498 581 515 l 601 496 q 631 454 621 469 m 433 586 l 422 518 q 368 524 385 524 q 311 518 346 524 l 298 586 q 366 594 339 594 q 433 586 395 594 m 665 366 q 673 304 673 335 q 665 240 673 273 l 594 251 q 600 302 600 288 q 594 355 600 323 l 665 366 m 631 153 q 583 92 600 107 l 582 92 q 563 79 579 90 q 536 62 547 69 l 494 119 q 547 159 534 144 q 570 194 566 187 l 631 153 m 240 487 q 187 448 194 461 l 179 437 q 164 412 171 425 l 103 454 q 149 513 133 498 q 198 544 156 518 l 240 487 m 141 251 l 68 240 q 68 366 54 302 l 141 355 q 134 302 134 336 q 141 251 134 271 m 433 20 q 366 14 406 14 q 298 20 328 14 l 311 90 q 368 83 346 83 q 422 90 385 83 l 433 20 m 240 119 l 198 62 q 134 110 145 96 l 133 110 l 103 153 l 164 194 q 205 142 193 152 q 240 119 210 138 z "}}}
